<svg width="240" height="213" viewBox="0 0 240 213" fill="none" xmlns="http://www.w3.org/2000/svg">
<g clip-path="url(#clip0_71_2254)">
<path opacity="0.5" d="M126.269 172.044C137.745 172.044 149.21 171.784 160.65 173.563C163.393 173.99 166.118 173.732 168.824 174.745C171.54 175.764 174.282 176.693 177.064 176.874C183.679 177.305 190.352 176.932 196.972 176.892C202.89 176.856 241.435 176.465 238.881 192.695C237.97 198.484 232.674 206.019 229.705 208.444C225.953 211.507 221.849 213.32 217.718 213.932C212.8 214.659 208.054 215.463 203.114 214.676C197.598 213.795 192.008 213.356 186.521 212.102C173.929 209.221 161.329 209.05 148.644 209.05C136.275 209.05 123.9 208.565 111.558 209.977C98.4208 211.479 85.2583 211.527 72.0971 211.479C65.6536 211.455 59.2356 212.138 52.8028 212.615C45.8791 213.131 39.1641 214.007 32.2497 213.846C25.9413 213.697 16.3343 210.557 11.8344 202.552C9.16182 197.797 9.52432 186.357 12.201 181.77C13.3701 179.768 15.2548 178.199 16.7945 177.245C21.1806 174.525 25.643 174.519 30.2259 174.463C33.4402 174.423 36.7911 175.524 39.8757 177.063C42.6326 178.439 45.451 178.922 48.2548 179.778C52.043 180.936 56.27 181.098 60.0876 180.397C64.1595 179.649 68.2607 179.301 72.3446 178.713C77.4156 177.982 82.3783 176.397 87.432 175.545C89.9615 175.12 92.4334 174.064 94.9576 173.585C101.653 172.312 108.358 172.038 115.064 172.004C118.8 171.986 122.537 172.04 126.271 172.04L126.269 172.044Z" fill="#CAC8EC"/>
<path d="M70.0039 107.321L75.6623 147.993L73.8704 178.637L77.6051 180L81.3749 151.649L89.0024 102L70.0024 107.321H70.0039Z" fill="#C97F73"/>
<path d="M73.4915 178L73.0024 179.341L73.6525 187.694L76.9995 188L78.0024 182.358L77.5486 179.392L73.4915 178.001V178Z" fill="#305399"/>
<path d="M86.0024 102L91.4295 142.742L89.7056 186.954L93.8165 187L101.289 139.302L103.002 105.192L86.0039 102H86.0024Z" fill="#C97F73"/>
<path d="M89.7538 186.303L89.0024 190.635L98.3711 193L99.0024 190.001L93.8789 186L89.7538 186.301V186.303Z" fill="#305399"/>
<path d="M103.07 106.784L87.1244 105L86.0024 110.162L88.3697 144.22L88.1216 175.231L99.1474 177L103.923 150.156L104.002 110.361L103.071 106.783L103.07 106.784Z" fill="#7DB5DB"/>
<path d="M88.0024 103.69L72.0485 101L70.0024 110.307L73.603 144.65L71.4886 171.521L80.9831 173L84.2972 144.771L88.0024 103.69Z" fill="#7DB5DB"/>
<path d="M70.0204 44.5931C70.0573 44.7898 70.0957 44.9866 70.1426 45.1803C70.3388 45.9856 70.8335 47.7489 71.5997 47.8321C71.9494 47.87 72.3531 48.091 72.6815 47.9578C73.3439 47.6883 74.0575 47.8231 74.7185 47.5536C74.8536 47.4991 75.5189 47.0799 75.5715 46.9346C75.6184 46.8059 74.9374 45.3483 74.892 45.2182C74.6858 44.6158 74.4797 44.0119 74.2736 43.4095C74.285 43.4019 74.2949 43.3943 74.3063 43.3868C76.1685 41.9292 77.0541 39.3198 77.0001 36.8284C76.9447 34.3356 76.0633 31.9411 74.9602 29.7464C71.2869 22.4449 62.7307 26.866 62.037 34.0404C61.5835 38.731 65.6676 44.027 70.0218 44.5931H70.0204Z" fill="#C97F73"/>
<path d="M75.7524 31.4814C77.0248 33.0436 77.2773 35.17 77.3071 37.1602C77.3368 39.1071 77.8106 40.9357 77.6702 42.8915C77.9057 43.1548 78.3057 42.8885 78.5411 42.6281C79.9227 41.1003 81.2844 39.5515 82.6263 37.9833C82.761 37.8261 82.9001 37.6615 82.9625 37.458C83.0419 37.2006 82.988 36.9193 82.9298 36.653C81.7823 31.4186 79.2504 27.8736 75.8219 24.158C74.1566 22.3549 70.1779 20.7118 68.4672 23.4727C68.0771 24.1012 68.019 24.8972 68.0048 25.6529C67.9963 26.1048 68.0034 26.5702 68.1622 26.9892C68.7963 28.6622 70.3197 28.312 71.6063 28.6697C73.1935 29.1096 74.6772 30.1616 75.751 31.4799L75.7524 31.4814Z" fill="#3B455A"/>
<path d="M65.61 32.7151C67.4148 30.2267 71.2448 28.9459 71.8733 25.6166C72.706 21.2069 69.395 18.6572 65.289 19.0373C60.2078 19.5071 56.5083 23.836 55.3097 28.6421C54.1095 33.4498 53.5229 38.1333 54.48 43.0936C54.5281 43.3465 54.5851 43.6083 54.7471 43.8073C54.9256 44.0258 55.2016 44.132 55.4642 44.2278C58.8966 45.4847 62.3306 46.7431 65.763 48C66.1546 47.0618 67.8153 44.4462 67.5753 43.4796C67.4928 43.1459 66.3511 42.1329 66.1141 41.6586C65.43 40.288 64.8014 38.6106 64.5629 37.0844C64.3003 35.6793 64.4759 34.2773 65.6085 32.7136L65.61 32.7151Z" fill="#3B455A"/>
<path d="M69.5369 48.2218C69.4604 48.2616 69.3839 48.3014 69.3088 48.3427C65.691 50.2893 63.5141 57.096 62.2792 61.0895C59.0896 71.3991 58.4347 81.7749 59.4326 92.5471C59.9698 98.3473 60.7676 104.121 61.6845 109.874C61.9377 111.463 65.1684 125.558 64.4781 126C71.5578 121.466 78.7891 117.11 86.5429 114.012C94.2967 110.914 102.688 113.62 111.002 114.33C106.262 96.5259 100.325 74.0383 92.9794 57.2154C92.1007 55.2039 91.4089 53.0244 90.2476 51.1632C88.9097 49.019 87.2509 48.5593 85.0902 47.4806C84.3498 47.1107 83.6051 46.7393 82.8147 46.5183C78.6493 45.3571 73.3564 46.2427 69.5369 48.2233V48.2218Z" fill="#5D66D3"/>
<path d="M116.999 64.5662V64.7803V70.8811V80.0582C116.61 81.6358 114.749 82.4848 113.271 81.5644C109.822 79.4144 105.558 78.9252 103.214 82.916C101.315 86.1515 102.721 90.5171 106.019 92.3088C108.729 93.7823 110.905 92.5943 113.359 91.2605C114.979 90.3803 116.643 91.0523 116.999 92.7742V107.994H102.385C102.356 107.994 102.329 107.999 102.301 108H101.371C100.094 107.431 99.4609 105.828 100.224 104.486C101.609 102.058 102.815 99.6674 101.341 96.9538C99.5485 93.6529 95.1134 92.4307 91.8813 94.3354C87.8962 96.6832 88.3879 100.952 90.5371 104.403C91.3748 105.749 90.751 107.416 89.4439 108H88.5097C88.4814 107.999 88.4547 107.994 88.4265 107.994H73.6194V92.5199C73.1188 91.1326 71.4404 90.4085 70.0457 91.207C67.6217 92.5943 65.2333 93.8031 62.5226 92.3296C59.2252 90.5379 58.0013 86.098 59.901 82.861C62.2434 78.8702 66.5077 79.3594 69.9581 81.5094C71.3647 82.3867 73.1188 81.6566 73.6209 80.2218V70.4127V64.7803V64.5662H89.4469C90.754 63.9819 91.3793 62.3151 90.5401 60.9694C88.3893 57.5169 87.8992 53.2495 91.8843 50.9017C95.1163 48.9984 99.5515 50.2192 101.344 53.5201C102.818 56.2337 101.612 58.6246 100.227 61.0527C99.4624 62.3939 100.097 63.9968 101.374 64.5662H117.002H116.999Z" fill="#EBB1FF"/>
<path d="M99.2448 82.9033L98.0607 84.8829L99.687 87.5621L102.634 88.2392L104.088 85.5609L104.071 85.5449L104.523 84.4492L102.704 82.2402L102.067 82.4827L102.417 83.9678L101.425 83.0224L99.2422 82.9025L99.2448 82.9033Z" fill="#C97F73"/>
<path d="M101.449 87.2515C102.729 88.061 103.737 88.5755 104.473 88.7924C105.579 89.1181 108.217 88.328 107.862 85.7932C107.626 84.1036 106.438 82.6085 104.299 81.3097L101.449 87.2515V87.2515Z" fill="#6D78F7"/>
<path d="M159.002 115.507C164.596 115.124 176.932 112.859 184.002 110L179.458 144.954L169.713 190.579L164.502 190.405L164.479 191L164.449 190.999L162.801 149.843L161.914 138.598L161.616 133.939L159.002 115.507V115.507Z" fill="#305399"/>
<path d="M172.001 193.199L169.234 196L164.002 192.9L164.081 190.638L164.104 190L169.093 190.186L169.437 190.199L172.002 193.199H172.001Z" fill="#3B455A"/>
<path d="M162.94 129.732L159.403 143.893L157.504 184.999L157.473 185L157.452 184.406L152.075 184.554L143.695 140.89L142.002 115.033C147.83 115.962 158.233 114.674 164.002 115.083L162.94 129.734V129.732Z" fill="#305399"/>
<path d="M151.903 184.171L152.29 184.16L157.903 184L157.925 184.641L158.002 186.914L152.103 190L149.002 187.171L151.901 184.17L151.903 184.171Z" fill="#3B455A"/>
<path d="M163.686 21.4224C162.316 20.4422 163.19 19.842 164.686 20.0365C165.554 20.1496 166.353 20.5704 167.128 20.9881C167.663 21.2761 168.207 21.5747 168.628 22.0211C169.337 22.7721 169.609 23.8443 169.771 24.8758C169.956 26.0626 170.03 27.266 169.993 28.4664C169.977 28.9791 169.022 30.4434 168.741 30.8656C168.459 31.2879 168.773 30.6048 168.353 30.3273C167.96 30.0679 167.895 29.519 167.845 29.0424C167.659 27.2509 167.131 25.4775 166.169 23.9694C165.509 22.9364 164.667 22.1266 163.686 21.4239V21.4224Z" fill="#3B455A"/>
<path d="M157.097 39.1842C156.45 38.5902 155.532 38.5548 154.796 38.1096C153.411 37.2709 153.03 35.2868 152.803 33.5563C152.605 32.0512 152.407 30.5477 152.209 29.0427C151.995 27.4123 151.795 25.6671 152.441 24.2048C152.861 23.257 153.597 22.5332 154.392 21.9568C157.373 19.7929 161.287 19.504 164.733 20.695C166.084 21.1623 167.48 21.948 168.098 23.3719C168.45 24.1827 168.504 25.1025 168.553 25.9958C168.693 28.5783 168.834 31.1609 168.974 33.7449C169.008 34.3699 169.04 35.0082 168.888 35.6067C168.404 37.5053 166.378 38.204 164.643 38.6138C164.702 40.4136 164.633 42.2179 164.437 44C162.412 43.9292 160.388 43.857 158.365 43.7863C157.872 42.2385 158.24 40.2308 157.098 39.1828L157.097 39.1842Z" fill="#F9CBB7"/>
<path fill-rule="evenodd" clip-rule="evenodd" d="M168.921 35.907C168.707 37.5804 168.039 39.2067 166.813 40.2141C165.423 41.3565 163.606 41.5446 161.885 41.6933C160.944 41.7752 160.002 41.8556 159.061 41.9376C156.679 42.1439 154.286 41.9664 152.902 39.4009C152.264 38.2191 152 36.8142 152.002 35.4367C152.002 35.0589 152.026 34.6675 152.176 34.3322C152.327 33.9969 152.634 33.7269 152.967 33.7557C153.394 33.7921 153.676 34.2549 153.969 34.6099C154.612 35.3851 155.688 35.772 156.51 35.2865C156.754 35.1424 156.959 34.9345 157.164 34.7252C157.248 34.6387 157.332 34.5537 157.418 34.4718C158.27 33.6571 159.347 33.2414 160.436 33.0245C161.38 32.8348 162.759 32.3797 163.517 33.1883C163.957 33.6586 164.397 34.1289 164.838 34.5992C165.02 34.7934 165.205 34.9907 165.432 35.1075C165.666 35.2289 165.928 35.2562 166.182 35.2455C166.824 35.2182 167.524 34.8632 167.701 34.1669C167.778 33.8634 167.745 33.5388 167.738 33.2232C167.731 32.9061 167.756 32.5678 167.926 32.319C168.578 31.3678 168.868 32.7999 168.925 33.29C169.027 34.1578 169.031 35.0422 168.921 35.9055V35.907ZM162.45 36.7642C161.726 37.3452 160.935 37.3999 160.081 37.1875C159.642 37.0782 159.504 37.8474 159.943 37.9566C160.973 38.2146 161.971 38.1175 162.842 37.4211C163.204 37.1313 162.815 36.4729 162.45 36.7642V36.7642Z" fill="#3B455A"/>
<path d="M169.996 19.0786C170.074 19.0756 169.404 21.0972 169.314 21.2713C168.806 22.2642 168.637 22.035 167.687 21.8355C165.709 21.4217 163.326 21.8221 161.374 22.2181C159.245 22.6498 157.132 23.4015 155.354 24.6906C154.238 25.4989 153.297 26.5946 152.724 27.8643C152.436 28.5 152.243 29.1817 152.182 29.8814C152.055 30.5825 152.572 32.2736 152.625 33C150.932 30.8252 149.833 27.3106 150.024 24.5567C150.222 21.6747 151.652 19.3853 154 17.7687C156.749 15.8766 159.651 15.9541 162.825 16.03C163.164 16.0374 167.328 16.0091 167.349 16.3203C167.372 16.6954 167.398 17.0705 167.422 17.4441C168.047 17.5126 168.687 17.4188 169.267 17.1717C169.226 17.8267 169.141 18.4772 169.012 19.1203C169.34 19.1054 169.669 19.0905 169.996 19.0771V19.0786Z" fill="#3B455A"/>
<path d="M153.163 43L169.012 43.8166L178.738 47.7909L187.002 118.448C158.981 119.325 142.543 119.157 137.688 117.945L134.002 81.7589L146.629 48.2412L153.163 43Z" fill="#7DB5DB"/>
<path d="M182.001 63.4079V63.6197V69.6555V78.735C181.612 80.2958 179.751 81.1358 178.273 80.2252C174.824 78.098 170.56 77.614 168.216 81.5624C166.316 84.7634 167.54 89.1575 170.837 90.9301C173.548 92.388 175.936 91.192 178.36 89.8195C179.822 88.9927 181.598 89.8151 182.001 91.317V106.375H167.387C165.475 106.375 164.278 108.42 165.226 110.064C166.61 112.467 167.816 114.832 166.343 117.517C164.55 120.783 160.115 121.992 156.883 120.107C152.898 117.784 153.389 113.561 155.539 110.147C156.572 108.505 155.38 106.376 153.426 106.376H138.619V91.0669C138.119 89.6944 136.44 88.978 135.046 89.768C132.622 91.1405 130.233 92.3365 127.523 90.8786C124.225 89.106 123.001 84.7134 124.901 81.5109C127.243 77.5625 131.508 78.0465 134.958 80.1737C136.365 81.0416 138.119 80.3193 138.621 78.8997V69.1951V63.6227V63.4109H154.447C155.754 62.8327 156.379 61.1837 155.54 59.8523C153.389 56.4365 152.899 52.2146 156.884 49.8917C160.116 48.0088 164.551 49.218 166.344 52.4823C167.818 55.167 166.612 57.5325 165.227 59.9347C164.462 61.2616 165.097 62.8474 166.374 63.4109H182.002L182.001 63.4079Z" fill="#3B455A"/>
<path d="M181.964 97.172L179.67 100L177.098 99.7628L177.707 96.9602L176.408 97.1988L176.002 96.4843L179.587 93L182.002 94.0098L181.964 97.1734V97.172Z" fill="#F9CBB7"/>
<path d="M180.605 49.152C183.892 51.886 184.982 56.279 186.711 60.0289C188.638 64.2119 190.803 68.185 193.002 72.2586L182.568 95L178.426 93.477L183.294 73.7062C181.79 70.5641 180.287 67.4206 178.783 64.2785C177.468 61.5312 175.559 58.9465 174.564 56.0676C173.935 54.2489 173.751 52.2039 174.448 50.4148C174.617 49.983 174.827 49.6119 175.07 49.2984C176.408 47.5758 178.752 47.6084 180.608 49.152H180.605Z" fill="#7DB5DB"/>
<path d="M141.383 75.6281L142.002 78.6367L139.788 81L136.831 80.2554L136.133 76.2644L136.154 76.2539L136.002 74.6954L138.28 73L138.821 73.6303L138.115 75.2324L139.292 74.6187L141.384 75.6281H141.383Z" fill="#F9CBB7"/>
<path d="M139.002 81.7696C137.594 82.0185 136.512 82.0667 135.757 81.9096C134.625 81.6747 132.289 79.228 133.214 76.3784C133.831 74.4792 135.31 73.3531 137.653 73L139.002 81.7696V81.7696Z" fill="#7DB5DB"/>
<path d="M63.7158 56.3074C60.186 59.9109 59.0321 64.8373 57.5542 69.4768C55.9061 74.6539 54.669 79.7662 53.41 85.0052C60.1219 92.6672 66.7337 99.8535 74.8661 106.128C76.1107 104.912 77.3278 103.667 78.5619 102.439C73.2806 96.6201 68.956 90.4191 64.9942 83.6804C65.7438 79.9744 66.4752 76.3608 67.6792 72.7433C68.7309 69.5815 70.601 66.7876 71.5147 63.4936C72.0916 61.4138 71.9987 59.1771 71.0795 57.1789C70.8575 56.698 70.5776 56.2402 70.196 55.9272C68.0926 54.2057 65.7092 54.2707 63.7154 56.3045L63.7158 56.3074Z" fill="#6D78F7"/>
<path d="M76.2324 108.234C77.9429 109.202 79.6518 110.171 81.3527 111.151C81.8307 110.46 82.3102 109.769 82.7884 109.079C81.7869 108.159 80.7854 107.238 79.7839 106.317C80.1599 106.093 80.5378 105.871 80.9136 105.645C79.314 104.998 77.7018 104.387 76.0912 103.765C75.4918 104.406 74.9052 105.062 74.2828 105.684C74.9358 106.529 75.6232 107.361 76.234 108.234L76.2324 108.234Z" fill="#C97F73"/>
</g>
<defs>
<clipPath id="clip0_71_2254">
<rect width="240" height="213" fill="white" transform="translate(0.000488281)"/>
</clipPath>
</defs>
</svg>
