<svg width="236" height="183" viewBox="0 0 236 183" fill="none" xmlns="http://www.w3.org/2000/svg">
<path opacity="0.5" d="M119.316 149.032C131.093 149.032 142.859 148.826 154.598 150.232C157.412 150.57 160.21 150.366 162.985 151.167C165.772 151.972 168.586 152.707 171.441 152.851C178.23 153.192 185.077 152.898 191.872 152.866C197.945 152.837 237.498 152.528 234.878 165.362C233.943 169.94 228.509 175.899 225.46 177.816C221.61 180.239 217.399 181.672 213.16 182.156C208.112 182.731 203.242 183.366 198.173 182.744C192.514 182.048 186.777 181.701 181.147 180.71C168.224 178.433 155.295 178.298 142.277 178.298C129.583 178.298 116.885 177.915 104.218 179.03C90.7365 180.218 77.2289 180.256 63.7238 180.218C57.111 180.199 50.5251 180.739 43.9232 181.116C36.8186 181.524 29.9263 182.217 22.8326 182.088C16.3589 181.971 6.50074 179.488 1.88227 173.159C-0.860244 169.399 -0.487984 160.352 2.2582 156.726C3.45797 155.141 5.3925 153.901 6.97186 153.147C11.4719 150.997 16.0526 150.992 20.7552 150.947C24.0531 150.917 27.4925 151.786 30.6574 153.004C33.4865 154.092 36.378 154.474 39.256 155.152C43.1433 156.068 47.4811 156.195 51.3977 155.641C55.5768 155.05 59.7852 154.775 63.9752 154.309C69.1796 153.73 74.2716 152.477 79.4576 151.804C82.0536 151.468 84.5899 150.632 87.1798 150.253C94.0502 149.247 100.932 149.029 107.814 149.003C111.649 148.988 115.483 149.032 119.315 149.032H119.316Z" fill="#CAC8EC"/>
<path d="M69.7843 156L74.4001 158.768L76.0024 160.967C74.908 161.48 74.0532 161.807 73.4381 161.952C72.823 162.094 70.0776 161.922 65.2002 161.436L65.0024 157.429L69.7843 156Z" fill="#273140"/>
<path d="M47.5512 159.031L49.7897 161.58C51.0035 163.883 51.3062 165.017 50.6976 164.982C49.7848 164.929 44.8209 165.199 44.4871 164.621C44.1532 164.043 41.5167 162.029 41.1729 161.636C40.9426 161.374 40.9459 160.163 41.1811 158L47.5512 159.027V159.031Z" fill="#273140"/>
<path d="M60.0008 93.8356L54.5221 127.723L47.5326 160L41.3057 159.638L42.5056 125.572C39.5131 104.698 38.0121 91.1745 38.0024 85L60.0024 93.8356H60.0008Z" fill="#BDBFC1"/>
<path d="M74.0009 95.295L71.5354 157.699L65.2338 158L61.883 126.293L57.0024 98.3127L70.0277 81L74.0024 95.295H74.0009Z" fill="#BDBFC1"/>
<path d="M80.7969 92.684C71.8078 95.7389 62.2857 94.0356 59.1725 93.8566C56.0593 93.676 39.6661 101.304 36.0957 100.991C33.9938 100.807 34.9228 89.3178 38.8825 66.5254L41.0054 40.483L43.8036 34.678C43.9086 34.599 44.0152 34.5216 44.1218 34.4458C49.2529 30.7683 55.846 30.0344 63.9012 32.2441C71.3183 36.82 67.0161 44.7573 70.4039 61.2205C73.7934 77.6837 88.5048 90.0646 80.7985 92.684H80.7969Z" fill="#8CABEF"/>
<path d="M61.8034 32.9527L64.0024 48.3787L61.9884 59L53.0024 34.4893L53.2513 32.0885L55.6974 32L61.8018 32.9544L61.8034 32.9527Z" fill="white"/>
<path d="M64.7966 72.0531L71.0024 94.6275L66.0969 95L59.0024 94.0199L62.3675 68L64.7982 72.0531H64.7966Z" fill="white"/>
<path d="M58.4737 32.8032C56.9245 32.8688 55.3753 32.9344 53.8261 33C53.6381 31.7405 53.5496 30.4665 53.5589 29.1926C52.2226 28.9157 50.6563 28.4388 50.246 27.0992C50.1171 26.6767 50.1295 26.2254 50.1419 25.7836C50.1979 23.9559 49.6991 22.1042 50.3082 20.3006C50.5102 19.7036 50.3502 19.017 50.6034 18.4408C51.0478 17.431 52.1029 16.8628 53.1269 16.5235C55.7436 15.6545 58.7488 15.8289 61.0749 17.3365C61.6949 17.7383 62.2745 18.244 62.6148 18.9114C63.14 19.9405 63.0219 21.176 62.8898 22.3299C62.7686 23.3958 62.6474 24.4601 62.5262 25.526C62.3864 26.7519 62.1362 28.1571 61.0904 28.7605C60.5357 29.0805 59.8334 29.1125 59.3501 29.5383C58.4971 30.2873 58.8203 31.7053 58.4722 32.8032H58.4737Z" fill="#E7CAAD"/>
<path d="M67.9866 10.118C68.8261 10.8884 69.2281 12.1596 68.8732 13.2523C68.468 14.5005 66.5637 17.4281 65.6269 18.3787C64.8166 19.2019 63.5103 19.0796 62.3677 19.1193C60.1247 19.1986 58.3419 20.0913 56.0843 20.0715C54.1897 20.0549 51.5642 20.2401 50.3617 21.9808C49.4557 23.2951 51.3373 27.5783 51.4962 29C49.8804 28.7603 48.318 27.413 47.0182 26.3269C46.3894 25.8029 45.7833 25.2458 45.2549 24.6176C42.8984 21.8172 42.3247 17.5835 43.8482 14.236C44.2874 13.2689 44.8984 12.3646 45.7314 11.7216C47.7265 10.1825 50.9079 9.51463 53.1784 8.30124C55.5511 7.0333 58.6823 6.61836 61.2689 7.38541C62.5476 7.76397 63.452 8.73271 64.661 9.14929C65.0435 9.28154 65.4146 9.32618 65.7776 9.36089C66.5377 9.43198 67.2622 9.45347 67.985 10.118H67.9866Z" fill="#292949"/>
<path d="M82.0008 48.9615C81.7786 49.3467 81.1286 51.3606 80.0507 55L74.4376 54.491L62.0024 34.8768L65.6157 32L80.6394 44.8554L82.0024 48.9615H82.0008Z" fill="#8CABEF"/>
<path d="M49.9832 103.804C50.1701 107.478 48.9975 110.745 46.4989 113.516C43.9971 116.289 40.8691 117.791 37.1979 117.981C34.982 118.093 32.9148 117.711 31.0153 116.842C29.7644 116.27 28.587 115.487 27.4879 114.495C24.7145 111.993 23.2128 108.863 23.0227 105.195C22.8309 101.529 24.0036 98.2616 26.5069 95.4849C29.0087 92.7115 32.1384 91.2081 35.808 91.0196C39.4776 90.8311 42.7446 92.0037 45.518 94.504C48.2881 97.0027 49.7915 100.132 49.9832 103.804Z" fill="#B97ADF"/>
<path d="M47.4251 113.427C44.8706 116.255 41.6767 117.787 37.9282 117.981C35.6657 118.095 33.5549 117.705 31.6154 116.819C30.3382 116.236 29.136 115.438 28.0137 114.426C27.2471 113.735 26.5783 112.994 26.0024 112.212C26.2357 112.336 26.4706 112.455 26.7088 112.564C28.6483 113.45 30.759 113.839 33.0215 113.725C36.7684 113.532 39.9639 112 42.5184 109.172C45.0696 106.347 46.2669 103.016 46.0761 99.269C45.9325 96.5403 45.0761 94.1064 43.5265 92C44.5427 92.5392 45.51 93.2202 46.4235 94.0429C49.252 96.5908 50.787 99.7821 50.9827 103.526C51.1736 107.273 49.9763 110.604 47.4251 113.429V113.427Z" fill="#DC76FF"/>
<path d="M139.1 77.9665C129.575 88.6499 119.325 93.7363 108.634 93.0842C98.5806 92.4712 87.5921 87.0661 75.9721 77.0201C75.7889 76.8623 75.5044 76.8802 75.3421 77.064L62.1277 91.8874C60.2312 94.0143 57.2354 94.5542 54.7876 93.4208C54.2154 93.1558 53.6754 92.8013 53.1836 92.3541L47.0939 86.7978C45.8387 85.6514 45.0978 84.0789 45.011 82.3699C44.9242 80.6609 45.4996 79.0202 46.6327 77.7486L67.0377 54.8597C69.3761 52.2368 73.3877 52.0271 75.9817 54.393L78.579 56.7639C88.2399 65.7594 96.713 71.0751 103.778 72.5776C110.488 74.0037 117.452 70.7304 124.477 62.8487C129.575 57.1314 131.959 51.1652 131.567 45.1194C131.168 39.0525 128.042 33.3075 122.279 28.0471C116.498 22.7705 110.553 20.1183 104.612 20.1622C99.7056 20.1996 95.2328 22.0875 90.9432 25.9364C88.5243 28.1073 84.8921 28.0926 82.4957 25.9072L76.4928 20.4289C75.1797 19.2305 74.4179 17.5166 74.4019 15.7279C74.3858 13.9375 75.1171 12.2106 76.4093 10.9878C84.074 3.73544 92.9634 0.0393348 102.828 0.000308609C114.175 -0.0435958 125.04 4.59727 135.119 13.7944C145.201 22.9949 150.831 33.41 151.854 44.7519C152.878 56.1492 148.587 67.3253 139.1 77.9665Z" fill="#B97ADF"/>
<path d="M139.115 77.8526C129.602 88.5177 119.363 93.5954 108.685 92.9445C102.46 92.5646 95.8747 90.3439 89.0024 86.323C92.2548 87.409 95.4268 88.0502 98.5106 88.2385C109.189 88.8895 119.428 83.8117 128.941 73.1466C138.417 62.5236 142.703 51.3666 141.68 39.9888C140.658 28.6662 135.034 18.2688 124.964 9.08414C121.916 6.30341 118.794 3.94311 115.609 2C122.372 4.16712 128.905 8.10528 135.139 13.7917C145.209 22.9765 150.832 33.3738 151.855 44.6964C152.877 56.0742 148.591 67.2312 139.115 77.8542V77.8526Z" fill="#DC76FF"/>
<path d="M45.9804 34.011L42.856 52.2542L34.7678 63.6566L48.0024 74.1083L45.0607 80L24.1048 69.169L23.0024 63.6583L39.1788 35.1538L45.941 33L45.9804 34.0142V34.011Z" fill="#8CABEF"/>
<path d="M63.9585 34L61.0742 33.4777L58.0024 32.9613L58.9628 29.8616L62.4177 29L66.0024 32.4538L63.9585 34Z" fill="#EAC1A4"/>
<path d="M48.1961 75L51.601 75.6437L51.0538 77.4838L54.0024 80.6501L49.961 82L46.0024 78.9038L48.1977 75.0015L48.1961 75Z" fill="#E7CAAD"/>
<path d="M194.004 157.928L197.069 157L202.002 165H197.069L194.098 163.378L194.002 157.928H194.004Z" fill="#292949"/>
<path d="M156.002 144.413L151.996 162.195L139.587 163L132.87 156.812C132.064 155.195 131.82 152.336 132.137 148.23C132.098 146.283 133.567 144.206 136.545 142L156.002 144.413Z" fill="#3B3387"/>
<path d="M177.657 138.019C178.916 137.686 180.381 141.931 180.687 142.698C181.688 145.195 182.661 147.164 181.416 149.822C180.721 151.304 179.567 152.763 178.185 153.684L193.904 158.087L194.002 163.846L145.415 164L139.002 155.522L142.642 148.85C143.862 146.44 146.252 145.649 149.813 146.48C168.371 140.839 177.654 138.017 177.657 138.017V138.019Z" fill="#474EBB"/>
<path d="M121.293 78.6389L119.002 74.9517L120.706 74L122.894 76.2112L123.468 75.4238L125.002 78.7943L123.38 80L121.295 78.6404L121.293 78.6389Z" fill="#A0734B"/>
<path d="M153.322 101.177L134.532 105L122.002 80.761L125.016 78L138.621 92.6573L154.002 88.5117L153.322 101.177Z" fill="#EED5D5"/>
<path d="M138.32 132.991C141.689 123.597 142.34 113.638 143.552 103.778C143.91 100.869 144.288 97.8947 145.588 95.2679C147.079 92.2514 149.436 90.7105 152.147 89.9164C155.598 88.9038 159.627 89.0995 163.183 89C166.556 89.0033 169.122 101.782 172.36 108.04C174.343 111.875 176.405 115.278 177.691 119.435C178.926 123.423 180.105 127.478 180.764 131.608C181.761 137.842 184.682 142.269 181.689 144.279C181.419 144.359 181.157 144.439 180.909 144.519C176.055 146.083 171.049 147.195 165.971 147.699C161.467 148.146 156.909 148.105 152.421 147.513C146.276 146.704 140.332 145.636 135.002 142.24C136.108 139.156 137.214 136.074 138.32 132.991Z" fill="#EED5D5"/>
<path d="M160.365 88.8669C160.362 89.0297 160.358 89.1909 160.346 89.3506C160.295 90.0188 160 90.7739 159.344 90.9568C159.044 91.0406 158.726 90.9863 158.42 90.9305C157.801 90.8188 157.183 90.7088 156.566 90.5971C156.44 90.5739 156.298 90.5429 156.23 90.4359C156.17 90.3413 156.187 90.2204 156.206 90.1119C156.296 89.6033 156.386 89.0933 156.476 88.5847C156.465 88.5801 156.455 88.5754 156.444 88.5708C154.602 87.7041 153.439 85.7739 153.115 83.7909C152.792 81.808 153.204 79.7754 153.839 77.8669C155.957 71.5165 164.085 73.701 165.76 79.2762C166.857 82.9212 164.082 87.746 160.365 88.8654V88.8669Z" fill="#A0734B"/>
<path d="M160.002 73.672C159.915 74.002 159.526 74.6852 159.25 74.8596C158.609 75.2674 158.8 74.8113 158.24 74.8456C156.866 74.9312 155.538 75.8448 154.596 76.9266C153.147 78.5873 152.368 80.8893 152.508 83.0917C152.636 85.1074 153.765 85.8918 153 88.0102C152.365 89.7674 151.028 91.2772 149.388 91.9745C146.781 92.236 144.209 90.4601 143.403 87.8436C143.226 87.2662 143.105 86.6187 142.676 86.2311C142.331 85.9183 141.842 85.8327 141.489 85.5276C140.026 84.2622 142.321 81.4855 141.567 79.6239C141.091 78.4472 139.551 78.1204 139.109 76.9266C138.615 75.5942 139.918 74.0378 141.273 73.8245C142.627 73.6097 143.908 74.2899 145.09 74.9483C145.159 73.5911 146.36 72.5451 147.563 72.0642C148.766 71.5832 150.068 71.4587 151.233 70.8688C152.633 70.159 153.95 68.766 155.433 69.0337C157.385 69.387 158.538 72.4253 159.999 73.6704L160.002 73.672Z" fill="#292949"/>
<path d="M172.802 72.564C173.581 72.8083 174.435 72.8035 175.173 73.1547C176.282 73.6832 176.175 74.844 176.461 75.8643C176.777 76.9948 177.24 78.5132 177.951 79.4074C178.464 80.0509 179.199 80.4325 179.834 80.9386C180.468 81.4432 181.042 82.1776 181 83.0478C180.96 83.8733 180.379 84.5966 180.27 85.4205C180.13 86.6468 180.323 87.2839 179.901 88.5293C179.683 89.1712 179.441 89.8513 178.938 90.2777C178.275 90.8397 177.359 90.7982 176.557 90.6385C175.756 90.4788 174.931 90.2282 174.129 90.4693C172.387 90.9914 172.651 92.7366 172.145 94.1768C171.374 96.369 168.756 97.5777 166.811 96.7251C165.163 96.0034 164.258 94.0379 164.395 92.1314C164.464 91.1766 164.876 90.2984 164.934 89.3436C164.99 88.4223 164.511 87.1274 165.373 86.4216C165.583 86.2492 165.849 86.1646 166.038 85.9666C166.191 85.8069 166.281 85.5898 166.34 85.371C166.544 84.6142 166.403 83.7775 165.97 83.1788C165.659 82.7493 165.206 82.4267 165.023 81.9142C164.815 81.3266 165.017 80.6544 165.076 80.0141C165.22 78.4669 164.419 76.9197 163.144 76.2795C162.303 75.8579 161.542 75.5993 160.816 74.9766C160.706 74.8824 159.057 73.332 159.002 73.6529C159.097 73.0925 159.443 72.6119 159.791 72.1712C160.363 71.4479 160.996 70.7453 161.784 70.3254C164.33 68.9698 164.341 72.3117 166.36 71.9381C166.847 71.8471 167.225 71.4175 167.67 71.1685C168.51 70.6974 169.513 70.9082 170.343 71.309C171.171 71.7097 171.924 72.2877 172.8 72.5624L172.802 72.564Z" fill="#292949"/>
<path d="M130.048 145.105C130.972 146.617 131.226 148.27 130.806 150.016C130.386 151.766 129.406 153.12 127.897 154.045C126.986 154.601 126.023 154.916 125.018 154.985C124.357 155.031 123.679 154.97 122.986 154.803C121.236 154.383 119.88 153.403 118.958 151.894C118.034 150.386 117.778 148.734 118.2 146.983C118.62 145.233 119.6 143.877 121.11 142.955C122.62 142.031 124.271 141.776 126.021 142.196C127.769 142.617 129.123 143.595 130.049 145.105H130.048Z" fill="#B97ADF"/>
<path d="M130.813 150.017C130.409 151.766 129.465 153.121 128.013 154.045C127.136 154.601 126.209 154.916 125.242 154.985C124.605 155.031 123.952 154.97 123.286 154.803C122.829 154.688 122.402 154.532 122.002 154.337C122.123 154.335 122.243 154.332 122.361 154.324C123.328 154.255 124.254 153.941 125.133 153.383C126.586 152.459 127.528 151.103 127.933 149.354C128.337 147.606 128.092 145.954 127.203 144.443C126.553 143.341 125.683 142.526 124.607 142C125.13 141.995 125.662 142.059 126.206 142.196C127.888 142.616 129.192 143.594 130.083 145.104C130.973 146.616 131.218 148.269 130.813 150.015V150.017Z" fill="#DC76FF"/>
<path d="M160.21 114.45C158.673 121.029 155.62 125.459 151.137 127.619C146.922 129.65 141.282 129.913 134.372 128.401C134.263 128.376 134.152 128.449 134.125 128.562L131.993 137.691C131.687 139.001 130.588 139.905 129.347 139.993C129.057 140.014 128.761 139.989 128.463 139.916L124.78 139.002C124.02 138.815 123.377 138.332 122.969 137.645C122.561 136.958 122.437 136.149 122.621 135.368L125.914 121.273C126.291 119.658 127.876 118.66 129.444 119.048L131.015 119.438C136.899 120.96 141.499 121.233 144.696 120.247C147.731 119.312 149.845 116.376 150.979 111.523C151.801 108.003 151.47 104.994 149.99 102.585C148.504 100.167 145.984 98.505 142.496 97.6404C138.998 96.7742 136.005 97.027 133.604 98.3957C131.619 99.5262 130.215 101.322 129.312 103.887C128.804 105.334 127.326 106.153 125.876 105.794L122.244 104.893C121.45 104.696 120.766 104.161 120.37 103.425C119.974 102.689 119.893 101.808 120.151 101.011C121.682 96.2717 124.486 92.7252 128.482 90.4675C133.08 87.8704 138.504 87.3207 144.601 88.8313C150.7 90.3419 155.258 93.368 158.147 97.8231C161.048 102.301 161.743 107.895 160.211 114.448L160.21 114.45Z" fill="#B97ADF"/>
<path d="M160.209 114.854C158.668 121.534 155.605 126.033 151.108 128.226C148.487 129.505 145.315 130.093 141.631 129.988C143.195 129.693 144.63 129.231 145.928 128.597C150.425 126.404 153.487 121.905 155.029 115.225C156.565 108.571 155.868 102.892 152.958 98.3448C150.06 93.8213 145.49 90.7504 139.37 89.2149C137.517 88.7495 135.727 88.4795 134.002 88.3983C137.235 87.7474 140.762 87.8931 144.55 88.8439C150.668 90.3777 155.24 93.4503 158.138 97.9738C161.048 102.521 161.746 108.2 160.209 114.854Z" fill="#DC76FF"/>
<path d="M137.804 128L134.002 126.926L134.316 124.963L137.055 125.009L136.843 124L140.002 125.393L139.907 127.484L137.804 127.998V128Z" fill="#A0734B"/>
<path d="M168.001 119.391L160.44 132L139.002 127.53L139.015 123.768L157.085 123.354L163.651 110L168.002 119.391H168.001Z" fill="#EED5D5"/>
</svg>
