<svg width="237" height="226" viewBox="0 0 237 226" fill="none" xmlns="http://www.w3.org/2000/svg">
<path opacity="0.5" d="M119.823 182.045C131.649 182.045 143.465 181.779 155.254 183.599C158.082 184.036 160.89 183.772 163.679 184.809C166.477 185.852 169.303 186.802 172.17 186.987C178.987 187.428 185.865 187.047 192.687 187.006C198.786 186.969 238.509 186.569 235.877 203.176C234.938 209.1 229.48 216.81 226.42 219.291C222.553 222.426 218.324 224.281 214.067 224.908C208.998 225.652 204.107 226.474 199.016 225.668C193.332 224.767 187.571 224.318 181.917 223.034C168.939 220.087 155.955 219.912 142.882 219.912C130.134 219.912 117.382 219.415 104.662 220.86C91.123 222.397 77.5582 222.447 63.9947 222.397C57.3543 222.373 50.74 223.071 44.1106 223.56C36.9753 224.087 30.055 224.984 22.9293 224.819C16.4281 224.666 6.52738 221.453 1.88996 213.263C-0.864369 208.397 -0.490783 196.69 2.26768 191.998C3.47253 189.949 5.41489 188.343 7.0016 187.367C11.5218 184.584 16.1207 184.578 20.8435 184.52C24.1562 184.479 27.6094 185.606 30.7884 187.181C33.6295 188.589 36.5341 189.083 39.4235 189.959C43.3276 191.144 47.6838 191.309 51.6181 190.592C55.8144 189.827 60.041 189.471 64.2497 188.869C69.4758 188.121 74.5902 186.499 79.7983 185.627C82.4051 185.192 84.9527 184.112 87.554 183.622C94.4536 182.319 101.364 182.039 108.275 182.004C112.125 181.985 115.977 182.041 119.824 182.041L119.823 182.045Z" fill="#CAC8EC"/>
<path d="M97.002 126.048L94.9314 154.272L88.0776 201H82.8058L79.4774 157.885L78.002 123L97.002 126.048Z" fill="#353A85"/>
<path d="M88.3353 200L91.002 203L88.3353 206L83.002 203V200H88.3353Z" fill="#292949"/>
<path d="M83.002 116L76.5311 161.639L72.1026 205H66.653L62.0236 159.235L60.002 119.37L83.002 116.002V116Z" fill="#353A85"/>
<path d="M72.002 204V206.999L66.0012 210L63.002 206.999L66.0012 204H72.002Z" fill="#292949"/>
<path d="M79.2911 55C77.3577 54.8171 75.4222 54.6343 73.4888 54.4535C73.4673 52.9595 73.5707 51.4634 73.7971 49.986C72.1848 49.4416 70.3204 48.625 70.0381 47C69.9497 46.4889 70.0402 45.9652 70.1307 45.4541C70.5058 43.3388 70.883 41.2255 71.258 39.1102C71.3873 38.3788 71.5253 37.6266 71.937 36.9991C72.659 35.8998 74.0622 35.4157 75.392 35.1913C78.7868 34.6178 82.4876 35.3222 85.1236 37.4624C85.8241 38.0318 86.4599 38.7175 86.7703 39.5487C87.2488 40.8307 86.8932 42.2479 86.5375 43.5673C86.2077 44.785 85.878 46.0026 85.5482 47.2203C85.1688 48.6208 84.6214 50.2125 83.2225 50.7403C82.4811 51.0208 81.6038 50.9398 80.9314 51.3533C79.7459 52.0826 79.9076 53.7823 79.2933 55H79.2911Z" fill="#F4C7B3"/>
<path d="M91.8305 33.8162C91.6418 35.7524 91.7165 37.6484 89.6114 38.5018C88.7321 38.8581 87.7719 38.9688 86.8262 39.0755C83.8874 39.4076 81.0565 39.4337 78.1426 39.0312C75.8738 38.7172 72.7007 38.365 70.9544 40.1765C69.7101 41.4686 71.195 46.428 71.1535 48C69.3409 47.4888 67.7627 45.7779 66.4436 44.3932C65.8069 43.7249 65.1993 43.0225 64.6932 42.2576C62.4327 38.84 62.4389 34.1382 64.7078 30.7266C65.3631 29.7424 66.2031 28.8507 67.2587 28.2791C73.0346 25.1493 80.0465 26.6568 86.3284 26.049C88.0062 25.8859 89.9453 25.4774 90.665 24C90.2813 24.8534 91.5443 27.8745 91.7538 28.8346C92.1105 30.473 92.0234 31.8537 91.8596 33.5283C91.8492 33.629 91.8409 33.7256 91.8305 33.8202V33.8162Z" fill="#292949"/>
<path d="M39.4073 94.1212L39.0055 97.6566L41.002 100.08L40.7027 100.764L39.8447 100.429L40.9245 102.916L40.3114 105.028L37.5469 106L34.6758 105.037L34.002 102.193L35.0023 98.8644L35.3434 94L39.4094 94.1212H39.4073Z" fill="#F4C7B3"/>
<path d="M40.1527 97.2397L35.002 98L35.0505 68.7334L65.002 55L64.8644 70.9248L47.0392 77.7384L40.1547 97.2376L40.1527 97.2397Z" fill="#5D66D3"/>
<path d="M102.777 19L102.934 15.4365L101.085 13.1341L101.307 12.4323L102.064 12.713L101.002 10.2933L101.417 8.14176L103.746 7L106.269 7.78561L107.002 10.5887L106.318 13.9804L106.283 18.8701L102.777 19Z" fill="#F4C7B3"/>
<path d="M102.44 16.0958L107.595 15L108.002 35.3759L105.977 51.1247L92.795 71L82.002 54.9588L94.5331 45.4986L102.44 16.0979V16.0958Z" fill="#5D66D3"/>
<path d="M92.5957 70.6012L106.002 137L49.002 135.619L56.3849 88.6374L65.3251 54.7465L83.035 54L92.5957 70.6012Z" fill="#5D66D3"/>
<path d="M124.858 12H108.078C105.448 12 103.872 11.356 103.357 10.0641C103.119 9.38089 103.002 8.50916 103.002 7.44502C103.002 6.38089 103.143 5.52879 103.425 4.88089C103.707 4.23691 104.154 3.78141 104.762 3.5144C105.608 3.17277 106.736 3 108.146 3H124.926C127.556 3 129.107 3.62827 129.579 4.88089C129.861 5.56413 130.002 6.43586 130.002 7.5C130.002 8.56413 129.871 9.42801 129.613 10.0916C129.355 10.7552 128.942 11.2225 128.378 11.4856C127.532 11.8272 126.355 11.9961 124.853 11.9961L124.858 12Z" fill="#E345FD"/>
<path d="M123.239 10H107.702C105.266 10 103.808 9.42757 103.331 8.27923C103.11 7.6719 103.002 6.89703 103.002 5.95113C103.002 5.00523 103.133 4.24782 103.394 3.6719C103.655 3.09947 104.069 2.69459 104.632 2.45724C105.415 2.15358 106.46 2 107.765 2H123.302C125.737 2 127.174 2.55846 127.61 3.6719C127.871 4.27923 128.002 5.0541 128.002 6C128.002 6.9459 127.88 7.71379 127.642 8.30366C127.403 8.89354 127.021 9.3089 126.498 9.54276C125.715 9.84642 124.625 9.99651 123.234 9.99651L123.239 10Z" fill="#FF88D5"/>
<path d="M121.239 8H105.702C103.262 8 101.808 7.42757 101.331 6.27923C101.11 5.6719 101.002 4.89703 101.002 3.95113C101.002 3.00523 101.133 2.24782 101.394 1.6719C101.655 1.09948 102.069 0.694589 102.632 0.457242C103.415 0.153577 104.46 0 105.765 0H121.302C123.737 0 125.174 0.558464 125.61 1.6719C125.871 2.27923 126.002 3.0541 126.002 4C126.002 4.9459 125.88 5.71379 125.642 6.30367C125.403 6.89354 125.021 7.3089 124.498 7.54275C123.715 7.84642 122.625 7.99651 121.234 7.99651L121.239 8Z" fill="#FF88D5"/>
<path d="M121.239 8H105.702C103.262 8 101.808 7.42757 101.331 6.27923C101.11 5.6719 101.002 4.89703 101.002 3.95113C101.002 3.00523 101.133 2.24782 101.394 1.6719C101.655 1.09948 102.069 0.694589 102.632 0.457242C103.415 0.153577 104.46 0 105.765 0H121.302C123.737 0 125.174 0.558464 125.61 1.6719C125.871 2.27923 126.002 3.0541 126.002 4C126.002 4.9459 125.88 5.71379 125.642 6.30367C125.403 6.89354 125.021 7.3089 124.498 7.54275C123.715 7.84642 122.625 7.99651 121.234 7.99651L121.239 8Z" fill="#EBB1FF"/>
<path d="M168.509 193.811L168.545 193.41L168.838 193.544L172.001 196.557L169.413 200L163.374 197.201L163.088 193.973L163.001 193L168.513 193.811H168.509Z" fill="#292949"/>
<path d="M159.001 139.184C164.66 139.14 170.276 139.069 175.001 139L174.385 141.48L169.385 194L163.373 191.432L163.582 193.605L163.262 193.561L159.001 139.182V139.184Z" fill="#BABCBE"/>
<path d="M163.001 191L169.001 193.608L168.964 194L163.211 193.207L163.001 191Z" fill="#909497"/>
<path d="M156.421 140.05L152.95 152.497L157.001 188.938L156.971 188.942L156.882 188.252L151.382 189L140.124 153.639L139.001 140C143.792 140.087 150.035 140.087 156.419 140.048L156.421 140.05Z" fill="#BABCBE"/>
<path d="M151.159 188.802L156.676 188L157.001 190.684L151.419 195L148.001 191.993L150.584 188.114L150.939 188.061L151.159 188.8V188.802Z" fill="#292949"/>
<path d="M156.906 188L157.001 188.971L151.232 190L151.001 189.052L156.906 188Z" fill="#3E3D3B"/>
<path d="M177.395 55C179.565 58.7447 181.824 63.0821 184.001 68C181.052 65.6637 178.03 63.1965 177.221 59.8321C176.831 58.2153 177.005 56.6086 177.395 55Z" fill="#E0E0E1"/>
<path d="M186.696 139.565C183.308 139.634 179.232 139.702 174.469 139.771C169.807 139.839 164.267 139.91 158.685 139.954C157.713 139.962 156.74 139.968 155.77 139.975C149.246 140.014 142.866 140.014 137.971 139.927C134.272 139.86 131.422 139.746 130.001 139.565L141.934 77.46L141.981 77.2687L145.157 64.2679L149.785 45.3126L161.325 39.7803C162.555 39.5827 163.665 39.0191 164.618 38.2017L165.038 38C164.903 38.5324 164.742 39.0295 164.548 39.4746C164.469 39.6576 164.384 39.8302 164.293 39.9945C163.332 41.7603 161.842 43.4158 161.881 45.429C161.887 45.8034 161.951 46.1674 162.042 46.5293C162.21 47.1844 162.48 47.8208 162.722 48.4572C165.284 55.2062 162.468 62.8245 158.302 68.5273C156.169 71.4473 153.351 73.9805 152.136 77.3914C151.927 77.9779 151.797 78.6018 151.737 79.2403C151.454 82.3143 152.892 85.6627 155.836 86.164C156.529 86.2825 157.265 86.2368 157.901 86.5342C160.076 87.5512 159.136 91.1368 160.746 92.9254C161.786 94.0797 163.545 94.1213 165.093 94.0755C165.6 94.061 166.135 94.0381 166.561 93.7594C167.467 93.1667 167.38 91.8439 167.647 90.7894C168.13 88.8823 170.024 87.6281 171.934 87.208C173.846 86.7858 175.831 87.0104 177.786 87.0125C180.232 87.0167 182.731 86.6506 184.888 85.4922C185.735 85.0367 186.521 84.444 187.188 83.7452C189.758 99.56 189.597 118.166 186.701 139.565H186.696Z" fill="#474EBB"/>
<path d="M162.001 40C163.122 39.7497 164.133 39.0356 165.001 38L162.001 40Z" fill="#E1CFB5"/>
<path d="M165.612 37.8533C165.459 38.0107 165.302 38.1616 165.14 38.3062L161.888 39.92C160.914 40.0816 159.864 40.0051 158.759 39.6287C158.61 39.5777 158.461 39.5245 158.312 39.4629C155.731 38.4125 153.742 35.7483 152.811 32.9141C151.88 30.0819 151.874 27.0946 152.188 24.2624C152.476 21.6578 153.522 19.9483 154.961 19C155.221 19.7676 155.717 20.7095 156.27 21.0688C156.55 21.2496 156.746 21.3346 156.915 21.3665C157.293 21.4367 157.538 21.2389 158.271 21.2432C159.821 21.2559 161.212 21.4579 162.429 22.5742C165.522 25.4148 166.682 33.0289 165.612 37.8491V37.8533Z" fill="#F4C7B3"/>
<path fill-rule="evenodd" clip-rule="evenodd" d="M188.903 78.9014C188.652 80.3607 187.898 81.6798 186.862 82.7516C186.779 82.2487 186.692 81.7478 186.603 81.2532C186.694 81.7478 186.779 82.2487 186.862 82.7516C186.192 83.4442 185.406 84.0316 184.56 84.483C182.404 85.6331 179.904 85.9939 177.458 85.9897C175.5 85.9877 173.515 85.7651 171.604 86.1835C169.692 86.6019 167.798 87.8427 167.316 89.7328C167.049 90.7758 167.136 92.0867 166.23 92.6762C165.806 92.9524 165.271 92.975 164.762 92.9895C163.213 93.0328 161.454 92.9936 160.414 91.8496C158.803 90.077 159.744 86.5236 157.569 85.5157C156.932 85.2209 156.196 85.2663 155.503 85.1488C152.561 84.652 151.121 81.3335 151.403 78.2871C151.461 77.6564 151.593 77.036 151.802 76.4547C153.018 73.0724 155.836 70.5639 157.97 67.67C162.136 62.0183 164.952 54.4682 162.39 47.7797C162.149 47.1511 161.88 46.5183 161.71 45.869C161.617 45.5124 161.555 45.1497 161.549 44.7787C161.512 42.7834 163 41.1427 163.964 39.3928C164.053 39.23 164.138 39.0568 164.218 38.8775C164.413 38.4364 164.576 37.9438 164.708 37.4162C164.729 37.3378 164.748 37.2574 164.766 37.1771C167.721 34.2399 168.906 28.7819 166.96 24.7049C166.851 24.472 166.733 24.2453 166.609 24.0247C166.733 24.2473 166.851 24.4741 166.96 24.7049C168.906 28.784 167.721 34.2399 164.766 37.1771C165.848 32.5064 164.675 25.1233 161.543 22.3696C160.31 21.2875 158.902 21.0896 157.333 21.0793C156.591 21.0731 156.342 21.2648 155.96 21.1989C155.788 21.1679 155.59 21.0875 155.307 20.9103C154.744 20.5619 154.244 19.6489 153.981 18.9048C152.525 19.822 151.465 21.4812 151.173 24.0062C150.855 26.7517 150.861 29.6455 151.804 32.3931C152.747 35.1386 154.761 37.7212 157.374 38.7415C157.527 38.8013 157.678 38.8528 157.827 38.9023C157.697 39.1372 157.533 39.3701 157.32 39.6031C155.89 41.1716 153.594 41.5364 151.485 41.8085C151.229 41.8415 150.96 41.8724 150.72 41.7797C150.325 41.6271 150.121 41.1695 150.119 40.747C150.114 40.3245 150.267 39.9164 150.385 39.5103C151.612 35.256 149.438 30.3958 149.077 26.1065C148.715 21.8255 149.602 17.1672 153.049 14.2733C153.634 14.4341 154.202 14.6526 154.744 14.9226C154.798 14.8504 154.854 14.7804 154.912 14.7123C159.901 8.73907 166.946 13.8446 170.736 18.406C173.86 22.1655 176.463 26.4837 177.658 31.2532C178.775 35.7157 179.149 42.2723 178.676 46.8337C178.401 49.4967 177.344 52.1103 176.786 54.7176C176.438 56.3398 176.283 57.9619 176.631 59.5902C177.352 62.9829 180.047 65.4708 182.677 67.8267C182.917 68.4389 183.154 69.0593 183.392 69.6879C183.63 70.3166 183.866 70.9555 184.099 71.6048C184.25 72.0212 184.395 72.4458 184.538 72.8766C184.397 72.4458 184.25 72.0212 184.099 71.6048C183.866 70.9576 183.63 70.3186 183.392 69.6879C183.154 69.0593 182.917 68.4368 182.677 67.8267C183.041 68.1523 183.402 68.476 183.758 68.7996C186.688 71.4564 189.57 75.0161 188.905 78.9075L188.903 78.9014ZM161.474 19.0923C161.88 19.2964 162.277 19.5252 162.665 19.7828C162.277 19.5272 161.878 19.2964 161.474 19.0923Z" fill="#292949"/>
<path d="M184.707 46.9409C189.147 51.5705 190.586 57.9121 192.434 63.883C194.495 70.546 196.039 77.1266 197.609 83.8706C189.118 93.7621 180.754 103.041 170.476 111.15C168.91 109.587 167.379 107.988 165.827 106.41C172.508 98.8977 177.983 90.896 183.003 82.2029C182.069 77.432 181.159 72.78 179.653 68.1244C178.337 64.0554 175.987 60.463 174.846 56.2233C174.125 53.5463 174.25 50.665 175.416 48.0881C175.698 47.468 176.052 46.8773 176.535 46.4729C179.193 44.2484 182.199 44.3242 184.707 46.9372L184.707 46.9409Z" fill="#5A61DB"/>
<path d="M176.667 101.687H182.443C184.104 101.687 185.318 101.895 186.075 102.311C186.832 102.726 187.343 103.35 187.609 104.187C187.869 105.018 188.002 106.134 188.002 107.533C188.002 108.927 187.884 110.043 187.648 110.879C187.407 111.711 187.004 112.299 186.439 112.644C185.584 113.085 184.369 113.303 182.801 113.303H176.672V119.26C176.672 120.974 176.47 122.227 176.067 123.012C175.664 123.798 175.06 124.326 174.249 124.594C173.438 124.863 172.361 125 171.004 125C169.653 125 168.571 124.863 167.76 124.594C166.954 124.326 166.384 123.874 166.05 123.236C165.622 122.303 165.411 120.954 165.411 119.195V113.313H159.207C157.639 113.313 156.499 113.12 155.786 112.725C155.074 112.334 154.597 111.706 154.361 110.849C154.12 109.992 154.002 108.877 154.002 107.503C154.002 106.128 154.135 105.018 154.395 104.156C154.656 103.299 155.118 102.696 155.786 102.356C156.686 101.915 157.998 101.697 159.709 101.697H165.411V95.7395C165.411 94.0258 165.597 92.7734 165.981 91.9875C166.359 91.2067 166.964 90.6743 167.8 90.4056C168.63 90.1369 169.712 90 171.044 90C172.376 90 173.457 90.1369 174.288 90.4056C175.119 90.6743 175.704 91.1307 176.033 91.7644C176.461 92.6974 176.672 94.0461 176.672 95.8054V101.687H176.667Z" fill="#009AF2"/>
<path d="M176.667 101.687H182.443C184.104 101.687 185.318 101.895 186.075 102.311C186.832 102.726 187.343 103.35 187.609 104.187C187.869 105.018 188.002 106.134 188.002 107.533C188.002 108.927 187.884 110.043 187.648 110.879C187.407 111.711 187.004 112.299 186.439 112.644C185.584 113.085 184.369 113.303 182.801 113.303H176.672V119.26C176.672 120.974 176.47 122.227 176.067 123.012C175.664 123.798 175.06 124.326 174.249 124.594C173.438 124.863 172.361 125 171.004 125C169.653 125 168.571 124.863 167.76 124.594C166.954 124.326 166.384 123.874 166.05 123.236C165.622 122.303 165.411 120.954 165.411 119.195V113.313H159.207C157.639 113.313 156.499 113.12 155.786 112.725C155.074 112.334 154.597 111.706 154.361 110.849C154.12 109.992 154.002 108.877 154.002 107.503C154.002 106.128 154.135 105.018 154.395 104.156C154.656 103.299 155.118 102.696 155.786 102.356C156.686 101.915 157.998 101.697 159.709 101.697H165.411V95.7395C165.411 94.0258 165.597 92.7734 165.981 91.9875C166.359 91.2067 166.964 90.6743 167.8 90.4056C168.63 90.1369 169.712 90 171.044 90C172.376 90 173.457 90.1369 174.288 90.4056C175.119 90.6743 175.704 91.1307 176.033 91.7644C176.461 92.6974 176.672 94.0461 176.672 95.8054V101.687H176.667Z" fill="#009AF2"/>
<path d="M174.667 99.6869H180.443C182.104 99.6869 183.318 99.8948 184.075 100.311C184.837 100.726 185.348 101.35 185.609 102.187C185.869 103.018 186.002 104.134 186.002 105.533C186.002 106.927 185.884 108.048 185.648 108.879C185.407 109.711 185.004 110.299 184.439 110.644C183.584 111.085 182.369 111.303 180.801 111.303H174.672V117.26C174.672 118.974 174.47 120.227 174.067 121.012C173.664 121.798 173.06 122.326 172.249 122.594C171.438 122.863 170.361 123 169.004 123C167.653 123 166.571 122.863 165.76 122.594C164.954 122.326 164.384 121.874 164.05 121.236C163.622 120.308 163.411 118.954 163.411 117.195V111.313H157.207C155.639 111.313 154.499 111.12 153.786 110.725C153.074 110.334 152.597 109.706 152.361 108.849C152.12 107.992 152.002 106.877 152.002 105.503C152.002 104.134 152.135 103.018 152.395 102.156C152.656 101.299 153.118 100.696 153.786 100.356C154.691 99.9151 155.998 99.6971 157.709 99.6971H163.411V93.7395C163.411 92.0258 163.597 90.7734 163.981 89.9875C164.359 89.2067 164.964 88.6794 165.8 88.4056C166.63 88.1369 167.712 88 169.044 88C170.376 88 171.457 88.1369 172.288 88.4056C173.119 88.6743 173.704 89.1307 174.033 89.7645C174.461 90.6974 174.672 92.0461 174.672 93.8054V99.6869H174.667Z" fill="#009AF2"/>
<path d="M175.334 99.6869H181.279C182.989 99.6869 184.239 99.8948 185.018 100.311C185.803 100.726 186.329 101.35 186.597 102.187C186.865 103.018 187.002 104.134 187.002 105.533C187.002 106.927 186.881 108.048 186.638 108.879C186.39 109.711 185.975 110.299 185.393 110.644C184.512 111.085 183.263 111.303 181.648 111.303H175.339V117.26C175.339 118.974 175.131 120.227 174.716 121.012C174.301 121.798 173.679 122.326 172.844 122.594C172.009 122.863 170.901 123 169.504 123C168.113 123 167 122.863 166.165 122.594C165.335 122.326 164.748 121.874 164.404 121.236C163.964 120.308 163.746 118.954 163.746 117.195V111.313H157.36C155.746 111.313 154.572 111.12 153.839 110.725C153.105 110.334 152.614 109.706 152.371 108.849C152.123 107.992 152.002 106.877 152.002 105.503C152.002 104.134 152.139 103.018 152.407 102.156C152.675 101.299 153.151 100.696 153.839 100.356C154.77 99.9151 156.116 99.6971 157.877 99.6971H163.746V93.7395C163.746 92.0258 163.938 90.7734 164.333 89.9875C164.723 89.2067 165.345 88.6794 166.205 88.4056C167.061 88.1369 168.174 88 169.545 88C170.916 88 172.029 88.1369 172.885 88.4056C173.74 88.6743 174.342 89.1307 174.681 89.7645C175.121 90.6974 175.339 92.0461 175.339 93.8054V99.6869H175.334Z" fill="#2BC299"/>
<path d="M178.334 103.687H184.279C185.989 103.687 187.239 103.895 188.018 104.311C188.798 104.726 189.324 105.35 189.597 106.187C189.865 107.018 190.002 108.134 190.002 109.533C190.002 110.927 189.881 112.048 189.638 112.879C189.39 113.711 188.975 114.299 188.393 114.644C187.512 115.085 186.263 115.303 184.648 115.303H178.339V121.26C178.339 122.974 178.131 124.227 177.716 125.012C177.301 125.798 176.679 126.326 175.844 126.594C175.009 126.863 173.901 127 172.504 127C171.113 127 170 126.863 169.165 126.594C168.335 126.326 167.748 125.874 167.404 125.236C166.964 124.303 166.746 122.954 166.746 121.195V115.313H160.36C158.746 115.313 157.572 115.12 156.839 114.725C156.105 114.334 155.614 113.706 155.371 112.849C155.123 111.992 155.002 110.877 155.002 109.503C155.002 108.128 155.139 107.018 155.407 106.156C155.675 105.299 156.151 104.696 156.839 104.356C157.765 103.915 159.116 103.697 160.877 103.697H166.746V97.7395C166.746 96.0258 166.938 94.7734 167.333 93.9875C167.723 93.2067 168.345 92.6743 169.205 92.4056C170.061 92.1369 171.174 92 172.545 92C173.916 92 175.029 92.1369 175.885 92.4056C176.74 92.6743 177.342 93.1307 177.681 93.7645C178.121 94.6974 178.339 96.0461 178.339 97.8054V103.687H178.334Z" fill="#E345FD"/>
<path d="M177.334 101.687H183.279C184.989 101.687 186.239 101.895 187.018 102.311C187.798 102.726 188.324 103.35 188.597 104.187C188.865 105.018 189.002 106.134 189.002 107.533C189.002 108.927 188.881 110.043 188.638 110.879C188.39 111.711 187.975 112.299 187.393 112.644C186.512 113.085 185.263 113.303 183.648 113.303H177.339V119.26C177.339 120.974 177.131 122.227 176.716 123.012C176.301 123.798 175.679 124.326 174.844 124.594C174.009 124.863 172.901 125 171.504 125C170.113 125 169 124.863 168.165 124.594C167.335 124.326 166.748 123.874 166.404 123.236C165.964 122.303 165.746 120.954 165.746 119.195V113.313H159.36C157.746 113.313 156.572 113.12 155.839 112.725C155.105 112.334 154.614 111.706 154.371 110.849C154.123 109.992 154.002 108.877 154.002 107.503C154.002 106.128 154.139 105.018 154.407 104.156C154.675 103.299 155.151 102.696 155.839 102.356C156.765 101.915 158.116 101.697 159.877 101.697H165.746V95.7395C165.746 94.0258 165.938 92.7734 166.333 91.9875C166.723 91.2067 167.345 90.6743 168.205 90.4056C169.061 90.1369 170.174 90 171.545 90C172.916 90 174.029 90.1369 174.885 90.4056C175.74 90.6743 176.342 91.1307 176.681 91.7644C177.121 92.6974 177.339 94.0461 177.339 95.8054V101.687H177.334Z" fill="#FF88D5"/>
<path d="M175.334 99.6869H181.279C182.989 99.6869 184.239 99.8948 185.018 100.311C185.803 100.726 186.329 101.35 186.597 102.187C186.865 103.018 187.002 104.134 187.002 105.533C187.002 106.927 186.881 108.048 186.638 108.879C186.39 109.711 185.975 110.299 185.393 110.644C184.512 111.085 183.263 111.303 181.648 111.303H175.339V117.26C175.339 118.974 175.131 120.227 174.716 121.012C174.301 121.798 173.679 122.326 172.844 122.594C172.009 122.863 170.901 123 169.504 123C168.113 123 167 122.863 166.165 122.594C165.335 122.326 164.748 121.874 164.404 121.236C163.964 120.308 163.746 118.954 163.746 117.195V111.313H157.36C155.746 111.313 154.572 111.12 153.839 110.725C153.105 110.334 152.614 109.706 152.371 108.849C152.123 107.992 152.002 106.877 152.002 105.503C152.002 104.134 152.139 103.018 152.407 102.156C152.675 101.299 153.151 100.696 153.839 100.356C154.77 99.9151 156.116 99.6971 157.877 99.6971H163.746V93.7395C163.746 92.0258 163.938 90.7734 164.333 89.9875C164.723 89.2067 165.345 88.6794 166.205 88.4056C167.061 88.1369 168.174 88 169.545 88C170.916 88 172.029 88.1369 172.885 88.4056C173.74 88.6743 174.342 89.1307 174.681 89.7645C175.121 90.6974 175.339 92.0461 175.339 93.8054V99.6869H175.334Z" fill="#EBB1FF"/>
<path d="M146.539 93.2553L149.411 97.1315L150.816 100.234L153.133 101.986L155.847 101.027L157.246 98.6704L156.34 96.714L153.955 95.4704L154.797 95.2203L154.577 94.5281L151.562 93.8688L149.588 90.9605L146.54 93.2581L146.539 93.2553Z" fill="#F4C7B3"/>
<path d="M145.673 75.1328L150.606 65.1869L153.267 54.8332L150.459 50.5525L149.4 44.9365L133.124 75.0025L149.882 96.3922L153.275 92.6155L145.671 75.1318L145.673 75.1328Z" fill="#474EBB"/>
<path d="M173.827 96.4275L175.509 91.3686L180.748 90.6558L182.988 94.5086L178.507 97.8709L173.826 96.4258L173.827 96.4275Z" fill="#F4C7B3"/>
</svg>
