<svg width="237" height="196" viewBox="0 0 237 196" fill="none" xmlns="http://www.w3.org/2000/svg">
<path opacity="0.5" d="M119.823 157.04C131.649 157.04 143.465 156.804 155.254 158.417C158.082 158.805 160.89 158.571 163.679 159.49C166.477 160.414 169.303 161.256 172.17 161.421C178.987 161.811 185.865 161.474 192.687 161.437C198.786 161.404 238.509 161.05 235.877 175.77C234.938 181.02 229.48 187.854 226.42 190.054C222.553 192.832 218.324 194.476 214.067 195.032C208.998 195.691 204.107 196.42 199.016 195.706C193.332 194.907 187.571 194.509 181.917 193.371C168.939 190.759 155.955 190.604 142.882 190.604C130.134 190.604 117.382 190.163 104.662 191.444C91.123 192.807 77.5582 192.851 63.9947 192.807C57.3543 192.785 50.74 193.404 44.1106 193.837C36.9753 194.305 30.055 195.099 22.9293 194.953C16.4281 194.818 6.52738 191.97 1.88996 184.71C-0.864369 180.397 -0.490783 170.021 2.26768 165.861C3.47253 164.046 5.41489 162.623 7.0016 161.757C11.5218 159.291 16.1207 159.285 20.8435 159.234C24.1562 159.197 27.6094 160.197 30.7884 161.592C33.6295 162.84 36.5341 163.278 39.4235 164.055C43.3276 165.105 47.6838 165.251 51.6181 164.616C55.8144 163.938 60.041 163.622 64.2497 163.088C69.4758 162.425 74.5902 160.988 79.7983 160.215C82.4051 159.829 84.9527 158.872 87.554 158.437C94.4536 157.283 101.364 157.034 108.275 157.003C112.125 156.987 115.977 157.036 119.824 157.036L119.823 157.04Z" fill="#CAC8EC"/>
<path d="M63.0001 156L60.7364 171H56.002V157.668L63.002 156H63.0001Z" fill="#EFBFA5"/>
<path d="M90.2986 154.002L91.002 170.761L85.5294 171L83.002 154.32L90.2986 154V154.002Z" fill="#EFBFA5"/>
<path d="M76.002 101L69.1141 128.208L63.313 157.583L53.002 158V150.709V108.209L76.002 101Z" fill="#8CABEF"/>
<path d="M90.7547 100L92.002 156L80.7439 155.97L78.2969 136.493L68.002 103.486L90.7547 100.002V100Z" fill="#8CABEF"/>
<path d="M76.7873 35.3627C77.5883 35.7194 78.3244 36.2363 79.0527 36.7475C81.1805 38.2429 82.8667 38.9906 83.9889 41.5199C84.9638 43.7153 85.4036 46.1874 86.0612 48.5049C91.5594 67.8826 95.3714 88.2864 98.002 108.341C89.3532 106.329 80.347 107.056 71.7843 109.264C63.2235 111.473 55.045 115.13 47.0023 119C47.7861 118.622 46.2529 102.825 46.1975 101.059C45.9948 94.6706 45.9183 88.2769 46.121 81.8946C46.4957 70.0399 48.5566 58.8623 53.2728 48.1349C55.1005 43.9786 58.2893 36.9077 62.3498 35.3322C62.4339 35.2997 62.52 35.2673 62.606 35.2349C66.8826 33.6536 72.5662 33.48 76.7911 35.3646L76.7873 35.3627Z" fill="#3B3387"/>
<path d="M92.0001 98.5073C81.3836 100.133 63.7178 101.374 53.1013 103C52.5289 83.7459 54.4187 61.5106 59.0512 42.8782C59.8909 39.4977 61.1324 35.8511 64.0761 34.1285C67.2301 32.2843 73.9192 32.5353 75.845 36.1173C78.6617 41.3591 79.217 49.7018 80.4737 55.5349C83.3169 68.7335 90.2411 85.1148 92.002 98.5054L92.0001 98.5073Z" fill="#EFF5F1"/>
<path d="M75.5853 28.4735C74.9351 30.7859 73.3217 32.9177 71.0674 33.6955C70.977 33.7259 70.8865 33.7544 70.796 33.7829C70.764 34.5417 70.7319 35.3024 70.6999 36.0611C70.6905 36.2855 70.6754 36.5271 70.5416 36.7077C70.321 37.0063 69.8894 37.0139 69.52 36.993C68.3307 36.9264 67.1395 36.8579 65.9502 36.7914C66.116 35.7017 66.3271 34.6197 66.5853 33.549C62.3822 31.7576 59.7868 25.581 61.5755 21.3688C64.2896 14.9735 74.0021 13.4978 75.5703 21.3365C76.0415 23.6927 76.2356 26.1648 75.5853 28.4754V28.4735Z" fill="#EFBFA5"/>
<path d="M71.2807 19.6486C69.9995 18.9909 68.2999 18.958 68.0242 17.19C67.9548 16.7471 68.0599 16.2964 68.1749 15.8631C68.3693 15.1377 68.6211 14.3852 69.1824 13.8727C71.6556 11.6269 75.4872 14.1783 76.8239 16.3215C77.5439 17.4744 78.7795 18.8845 78.8866 20.2463C78.9599 21.1863 78.7398 22.1206 78.6188 23.0549C78.4403 24.4322 78.476 25.8345 78.7259 27.2002C78.7874 27.5348 78.8647 27.8753 79.0492 28.1615C79.4994 28.8598 80.4752 29.09 80.9452 29.7748C81.56 30.6723 82.4901 33.0302 81.6949 33.9703C80.6437 35.2102 78.0675 35.0226 76.6157 34.9356C74.0414 34.7769 74.1545 33.3726 74.7871 31.1636C75.5011 28.6722 76.3004 25.7649 75.0073 23.3625C74.1822 21.8305 72.8574 20.4552 71.2767 19.6447L71.2807 19.6486Z" fill="#353A85"/>
<path d="M62.437 25.6509C62.5423 26.9187 63.4319 28.202 62.913 29.365C62.6828 29.8826 62.2107 30.2471 61.8323 30.6716C60.7965 31.8269 60.4453 33.5483 60.9428 35.0138C58.4049 35.3278 55.8689 35.6419 53.333 35.954C52.9506 36.0005 52.5488 36.047 52.1899 35.9036C51.4252 35.5973 51.2282 34.6319 51.1404 33.8197C50.9668 32.2166 50.8166 30.4952 51.6085 29.0859C51.9753 28.4326 52.5234 27.8937 52.8863 27.2405C54.638 24.0943 51.669 19.5544 53.9767 16.7862C55.0067 15.5514 56.735 15.1908 58.1083 14.3456C60.5019 12.8724 61.7523 9.95497 64.2375 8.63874C68.929 6.1536 74.7324 11.3895 72.5145 16.2667C70.7042 20.2445 62.0176 20.5488 62.439 25.6528L62.437 25.6509Z" fill="#353A85"/>
<path d="M62.486 36C60.2455 67.9285 61.5808 87.041 66.4898 93.3357C71.3989 99.6303 74.9029 103.965 77.002 106.336L46.8876 119C41.8031 75.0002 47.0007 47.3323 62.486 36Z" fill="#3B3387"/>
<path d="M61.0001 169V172.336L53.502 177L51.002 174.456L56.002 169.367L61.002 169H61.0001Z" fill="#353A85"/>
<path d="M86.002 169L92.3017 169.787L98.002 174.59L94.3348 176L86.1102 173.61L86.002 169.002V169Z" fill="#353A85"/>
<path d="M189.574 168.07L190.002 171.141L183.763 175L180.002 172.324L182.907 168.859L189.146 165L189.574 168.07Z" fill="#292949"/>
<path d="M182.134 169L167.019 127.135L163.002 87.4602L163.865 72L187.798 72.9209L189.002 82.4196L183.644 127.072L188.097 166.958L182.134 168.996V169Z" fill="#292949"/>
<path d="M151.904 51.0265L142.607 62L136.002 55.9044L149.945 31.2741L162.002 28L151.902 51.0265H151.904Z" fill="#BABCBE"/>
<path d="M172 73L164.388 120.992L161.136 168.942L155.221 169L147.002 117.151L147.066 76.8724L172.002 73H172Z" fill="#292949"/>
<path d="M162.002 171.971L155.369 175L152.002 172.06L155.302 169.06L161.967 169L162 171.969L162.002 171.971Z" fill="#292949"/>
<path d="M190.627 98.9937C190.368 99.0301 190.116 98.9019 189.887 98.7796C187.471 97.4793 185.754 95.6321 183.373 94.3757C180.877 93.0601 178.032 92.3755 175.242 91.9032C171.071 91.1766 166.81 90.7425 162.567 90.7119C159.497 90.689 154.974 91.0121 149.003 91.6833C146.983 91.3602 145.029 90.7578 143.089 90.1249C132.135 86.1303 138.684 79.5905 141.853 74.9113C143.965 71.7925 146.62 62.8892 149.815 48.2034C150.09 47.1326 150.336 46.056 150.557 44.9737C150.839 43.5988 151.085 42.2163 151.316 40.8318C151.447 40.0459 151.417 37.0781 151.979 36.5791C157.689 31.5251 159.338 27.1289 166.321 28.1481C182.254 30.4753 181.133 31.2 184.76 39.0382C186.218 42.1895 188.238 50.6721 188.817 54.0701C189.52 58.1852 190.171 68.4671 190.688 72.6071C191.265 77.2289 191.676 81.8718 191.799 86.5261C191.812 87.0424 191.909 88.4919 191.964 90.2262C192.079 93.8786 192.013 98.8006 190.627 98.9956V98.9937Z" fill="#BABCBE"/>
<path d="M155.002 61.4644L156.092 59L161.159 59.6404L160.285 60.6475L164.002 62.5317L163.28 65L157.535 63.5407L155.002 61.4625V61.4644Z" fill="#D6C7AC"/>
<path d="M138.416 64.9452L136.002 57.0886L143.838 53L158.002 58.5881L156.516 65L138.418 64.9452H138.416Z" fill="#454446"/>
<path d="M164.728 27.0814C164.096 26.6761 163.27 26.756 162.572 26.4813C161.255 25.9649 160.739 24.4002 160.379 23.0245C160.068 21.8281 159.756 20.6316 159.443 19.4352C159.105 18.1394 158.77 16.7462 159.219 15.4855C159.509 14.6671 160.104 13.9929 160.764 13.4317C163.241 11.3233 166.72 10.6257 169.915 11.185C171.166 11.4032 172.487 11.8767 173.168 12.9582C173.556 13.5739 173.686 14.3144 173.81 15.0334C174.165 17.1125 174.523 19.1897 174.879 21.2688C174.966 21.7716 175.051 22.286 174.968 22.7887C174.703 24.3866 172.951 25.1913 171.435 25.7291C171.615 26.9528 171.713 28.1902 171.731 29.4275C171.737 29.8679 171.462 30.2635 171.054 30.4252C169.031 31.2241 167.093 31.076 166.273 30.6688C165.693 29.4723 165.844 27.8005 164.728 27.0853V27.0814Z" fill="#F4C7B3"/>
<path d="M148.125 9.98259C147.811 9.4695 147.473 8.97377 147.093 8.5089C146.272 7.50201 145.264 6.63785 144.604 5.52101C143.944 4.40224 143.711 2.88805 144.503 1.85801C145.014 1.19446 145.843 0.860759 146.648 0.625431C149.304 -0.15385 152.169 -0.20593 154.85 0.474976C157.406 1.12309 159.692 2.19557 162.263 1.23883C164.679 0.339957 166.425 0.706447 168.949 1.60339C171.682 2.57556 175.351 2.8051 177.825 4.17656C178.859 4.74945 179.681 5.64447 180.324 6.634C182.55 10.0597 182.562 14.7837 180.355 18.221C179.859 18.9925 179.267 19.6966 178.644 20.3698C177.354 21.7625 175.812 23.4831 174.038 24C173.996 22.4183 175.442 17.434 174.222 16.1377C172.288 14.0815 167.917 14.7991 165.519 15.3045C162.901 15.8561 160.571 17.7021 157.977 18.0975C156.11 18.3811 153.727 17.4687 152.14 16.5081C150.181 15.3218 149.269 11.8594 148.123 9.98452L148.125 9.98259Z" fill="#292949"/>
<path d="M180.002 31L189.878 39.8409L201.002 63.8962L184.591 64L180.002 31Z" fill="#BABCBE"/>
<path d="M196.552 98.3142C189.479 112.367 178.927 124.871 167.3 136.206C157.564 145.698 132.244 166.061 132.161 166C132.083 166.069 104.855 148.315 94.2187 139.836C81.518 129.71 69.7693 118.312 61.3266 105.03C45.6405 80.3508 55.2592 42.0181 89.1207 37.5715C101.953 35.8867 122.057 41.6469 126.474 52.4115C129.793 41.2623 145.663 33.6096 158.599 34.0154C192.737 35.0847 209.697 72.2058 196.552 98.3161V98.3142Z" fill="#B97ADF"/>
<path d="M62.3102 49.1969L48.845 67.3696L68.002 80.8289L64.4488 86L38.1405 74.4208L36.002 68.8373L53.3275 40.0974L62.8248 35L62.3102 49.195V49.1969Z" fill="#3B3387"/>
<path d="M66.8627 82.0019L72.1567 84.2551L73.002 90.1828L69.8298 91L65.002 84.7095L66.8627 82V82.0019Z" fill="#EFBFA5"/>
<path d="M193.002 64.6034L197.387 62L202.002 64.2058L201.477 68H195.874L193.002 64.6015V64.6034Z" fill="#F4C7B3"/>
<path d="M142.002 34.6034L146.387 32L151.002 34.2058L150.477 38H144.874L142.002 34.6015V34.6034Z" fill="#F4C7B3"/>
<path d="M83.002 37.6034L87.3868 35L92.002 37.2058L91.4771 41H85.8744L83.002 37.6015V37.6034Z" fill="#EFBFA5"/>
</svg>
