<svg width="620" height="673" viewBox="0 0 620 673" fill="none" xmlns="http://www.w3.org/2000/svg">
<path opacity="0.4" d="M314.784 540.129C345.856 540.129 376.895 539.324 407.868 544.826C415.296 546.141 422.675 545.344 429.998 548.486C437.35 551.635 444.775 554.506 452.308 555.071C470.219 556.402 488.285 555.256 506.209 555.125C522.231 555.009 626.587 553.802 619.671 604.004C617.204 621.909 602.867 645.215 594.825 652.721C584.667 662.199 573.556 667.802 562.373 669.697C549.055 671.949 536.206 674.433 522.836 671.995C507.904 669.279 492.772 667.918 477.916 664.033C443.822 655.127 409.711 654.593 375.367 654.593C341.878 654.593 308.375 653.092 274.957 657.456C239.388 662.099 203.753 662.254 168.118 662.099C150.67 662.021 133.298 664.134 115.879 665.612C97.1336 667.206 78.9531 669.922 60.2337 669.419C43.1538 668.962 17.1445 659.244 4.95951 634.491C-2.27459 619.781 -1.29559 584.389 5.95166 570.213C9.11863 564.016 14.2206 559.164 18.3863 556.216C30.2592 547.805 42.3423 547.789 54.7507 547.611C63.4533 547.488 72.5238 550.892 80.8749 555.659C88.339 559.914 95.9674 561.408 103.56 564.062C113.816 567.644 125.259 568.14 135.594 565.973C146.619 563.66 157.72 562.584 168.778 560.766C182.507 558.506 195.944 553.601 209.627 550.97C216.477 549.654 223.165 546.389 230.002 544.903C248.127 540.965 266.284 540.114 284.439 540.013C294.554 539.951 304.672 540.129 314.781 540.129H314.784Z" fill="#D3D3FF"/>
<path d="M173.302 254.59C174.898 245.667 180.075 240.925 187.857 236.31C190.07 234.999 192.363 233.713 194.888 233.209C197.413 232.7 200.241 233.082 202.17 234.788C203.147 235.657 203.835 236.797 204.493 237.925C209.657 246.747 214.251 255.902 218.24 265.316C219.801 268.992 221.296 272.879 220.95 276.862C220.805 278.538 220.27 280.283 218.994 281.376C218.078 282.165 216.881 282.53 215.724 282.867C213.348 283.556 210.955 284.188 208.561 284.819C194.239 288.601 179.032 292.382 164.851 288.105C164.246 287.921 163.592 287.688 163.25 287.153C162.86 286.543 163.001 285.749 163.172 285.048C165.675 274.603 171.409 265.21 173.307 254.59H173.302Z" fill="#3B455A"/>
<path d="M219.386 254.737C218.028 261.358 213.894 267.679 207.654 270.335C206.299 270.912 204.95 271.291 203.617 271.529C203.817 274.344 203.879 277.168 203.781 279.991C199.962 279.996 196.147 280 192.327 280C192.172 280 191.478 272.441 191.832 269.556C181.179 263.93 174.231 248.944 178.068 237.786C184.432 219.28 211.721 213.078 217.833 234.72C219.67 241.222 220.749 248.116 219.386 254.733V254.737Z" fill="#F3BBB1"/>
<path d="M191.313 628.973L190.629 635.95L176.192 642L170 634.561L177.563 628.05L192 622L191.317 628.977L191.313 628.973Z" fill="#3B455A"/>
<path d="M203 485.402L191.898 626.132L178.005 628L166.508 508.052L157 470L202.996 485.398L203 485.402Z" fill="#CCD2D9"/>
<path d="M233.318 448L244 614.997L233.2 619L206.623 491.993L192 455.218L233.314 448H233.318Z" fill="#CCD2D9"/>
<path d="M233 617.511L246.762 615L255 620.744L249.476 629L234.357 624.514L233 617.511Z" fill="#3B455A"/>
<path d="M219.698 274.365C231.136 276.611 231.749 293.082 234.814 302.1C246.755 337.196 254.177 373.608 260.058 410.112C261.249 417.503 262.383 424.93 264.503 432.12C265.768 436.413 283.708 484.286 285 483.609C272.468 490.183 258.153 492.749 243.992 493.82C229.831 494.891 215.586 494.563 201.438 495.795C189.475 496.836 177.446 498.995 165.54 497.474C151.063 495.625 137.879 488.491 123.805 484.68C122.408 468.707 122.395 450.523 127.339 435.088C130.321 425.773 135.326 417.241 139.521 408.389C149.474 387.403 156.69 364.214 158.271 341.292C158.88 332.501 161.122 323.606 162.65 314.938C164.844 302.511 163.876 291.347 175.839 284.222C178.3 282.757 180.993 281.717 183.704 280.773C192.102 277.84 200.803 275.741 209.627 274.513C212.547 274.107 215.534 273.796 218.45 274.163C218.866 274.216 219.282 274.282 219.698 274.365Z" fill="#5D66D3"/>
<path d="M197.629 228.622C198.848 223.089 202.412 218.075 207.31 215C217.137 218.947 222.464 228.521 224.716 238.136C226.972 247.767 225.567 259.899 231.369 268.359C231.923 269.169 232.557 269.953 232.854 270.881C233.151 271.809 233.018 272.95 232.238 273.56C231.764 273.93 231.139 274.048 230.54 274.152C225.603 275.019 220.177 275.808 215.838 273.368C207.394 268.616 215.922 258.548 214.043 251.714C213.077 248.251 214.171 245.245 213.405 241.978C211.809 235.195 203.631 229.706 197 228.535L197.629 228.622Z" fill="#3B455A"/>
<path d="M165.662 288.408C161.972 293.475 163.958 300.678 161.819 306.557C160.959 308.919 159.459 310.988 157.973 313.022C154.196 318.203 150.418 323.388 146.641 328.569C145.994 329.456 144.837 330.442 143.951 329.787C143.516 329.464 143.399 328.879 143.334 328.347C141.495 313.934 147.754 295.383 149.992 281.105C150.857 275.601 153.839 271.952 155.039 266.753C156.982 258.329 154.326 249.001 156.073 240.271C159.711 222.109 172.534 210.188 190.885 209.04C196.114 208.713 200.391 210.376 204.203 214.125C206.68 216.565 208.353 220.005 207.936 223.44C207.688 225.474 206.428 229.027 204.702 230.328C202.455 232.022 202.255 230.978 199.447 231.262C195.349 231.677 191.719 232.532 188.768 235.64C184.252 240.407 183.648 247.517 183.291 254.043C182.948 260.237 184.161 269.106 181.288 274.811C179.51 278.342 176.498 280.324 173.425 282.214C170.582 283.964 167.683 285.64 165.67 288.408H165.662Z" fill="#3B455A"/>
<path d="M176.675 284L181 330.079L144.353 358.374L168.468 380.369L158.586 390L116 358.823L154.121 288.569L176.675 284.004V284Z" fill="#5D66D3"/>
<path d="M104.969 150.715L113.274 146.545C120.02 143.16 128.054 145.523 131.222 151.824L151.062 191.307C154.229 197.609 151.328 205.461 144.582 208.85L132.978 214.676C129.155 216.597 126.486 220.209 125.997 224.257C124.336 238.009 128.426 254.43 138.26 273.514C147.702 292.795 158.436 305.874 170.469 312.757C174.007 314.783 178.503 314.801 182.326 312.879L193.93 307.053C200.676 303.669 208.71 306.031 211.878 312.333L231.717 351.816C234.885 358.118 231.984 365.97 225.238 369.359L216.933 373.53C202.065 380.993 184.655 380.827 170.862 372.988C151.564 362.022 124.953 339.243 101.255 292.096C77.5621 244.944 75.1679 210.007 77.8898 187.984C79.834 172.245 90.0967 158.183 104.964 150.72L104.969 150.715Z" fill="#FF9090"/>
<path opacity="0.1" d="M231 364.901C229.704 366.689 227.996 368.249 225.855 369.327L217.531 373.511C202.63 380.999 185.181 380.833 171.357 372.968C152.017 361.965 125.346 339.111 101.595 291.806C98.3289 285.295 95.5003 279.042 93 273C94.1647 274.932 156.522 377.555 231 364.905V364.901Z" fill="#272525"/>
<path d="M160.004 385.203C162.426 382.078 163.004 379.45 167.238 379.005C169.003 378.82 180.704 384.35 179.673 385.255C178.546 386.245 177.247 386.952 175.922 387.719C179.004 390.549 189.255 396.443 180.609 398.839C176.863 399.876 168.3 395.663 166.077 392.842C164.061 390.287 162.08 387.689 160 385.199L160.004 385.203Z" fill="#F3BBB1"/>
<path d="M258.545 257.708L257 250.814L258.661 249.165L261.984 252.138L266.275 243.304L273.333 239L277 243.067L270.953 252.516L267.002 258.478L263.645 271L257.835 269.18L258.549 257.713L258.545 257.708Z" fill="#F3BBB1"/>
<path d="M249.126 294.381C251.438 283.049 253.207 271.603 254.424 260.099C259.198 259.712 264.063 260.464 268.499 262.282C269.69 282.596 268.757 303.037 265.718 323.153C265.587 324.02 265.403 324.966 264.719 325.507C264.146 325.956 263.362 326 262.631 326C255.554 326 248.653 323.914 241.962 321.604C231.754 318.074 221.748 313.973 212 309.312C213.082 303.116 213.318 296.77 212.692 290.513C211.829 281.861 213.813 270.027 224.406 276.694C227.274 278.498 249.607 291.991 249.121 294.385L249.126 294.381Z" fill="#5D66D3"/>
<path d="M337.073 176.912L328 160.709L336.922 144L346.22 148.817L345.097 162.551L350 167.224L348.098 179L337.073 176.912Z" fill="#EFBFA5"/>
<path d="M474.776 331.43L476 436.169L464.713 571H449.365L431 446.608L410 322L474.771 331.43H474.776Z" fill="#3B455A"/>
<path d="M449 570H465.667L474 578L465.667 586L449 578V570Z" fill="#3B455A"/>
<path d="M435 322L421.311 452.234L395.669 571H380.339L370 392.026L370.3 331.43L435 322Z" fill="#3B455A"/>
<path d="M396 578L379.333 586L371 578L379.333 570H396V578Z" fill="#3B455A"/>
<path d="M354.576 358.088C354.929 345.611 356.139 333.062 357.865 320.473C359.419 309.108 361.393 297.711 363.53 286.265C365.305 276.753 371.286 252.69 376.029 243.864C381.445 233.796 386.744 214.953 397.888 209.426C407.911 204.451 420.718 205.422 431.022 208.979C442.947 213.091 449.759 221.374 453.798 233.132C457.046 242.59 460.293 252.053 463.541 261.51C466.207 269.278 468.876 277.051 471.189 284.932C477.242 305.56 480.82 326.822 483.449 348.128C484.768 358.811 485.848 369.525 486.887 380.239C487.523 386.805 485.477 385.531 480.806 382.318C477.644 380.14 474.55 377.37 470.742 376.357C460.854 373.732 449.981 368.96 439.523 369.055C427.354 369.163 415.067 370.325 402.974 372.254C394.87 373.511 386.577 375.327 379.277 378.807C372.311 382.124 367.279 386.977 360.214 390.411C359.545 390.736 358.809 391.075 358.05 390.985C353.989 390.502 353.777 377.591 354.107 367.939C354.26 363.33 354.54 359.475 354.581 358.092L354.576 358.088Z" fill="#90D9E3"/>
<path d="M409.071 211.005L429.681 211.199C444.424 262.691 452.07 292.874 452.612 301.748C453.146 310.459 455.272 332.478 459 367.805C443.782 368.162 427.406 369.41 409.871 371.544C392.731 375.21 383.439 375.96 382 373.79C391.251 336.664 396.028 312.764 396.336 302.096C396.648 291.184 397.508 267.714 398.906 231.677L409.071 211V211.005Z" fill="white"/>
<path d="M413.173 206.941C412.569 202.092 407.318 200.16 404.563 196.12C401.608 191.786 400.058 186.731 399.39 181.587C398.954 178.241 398.558 174.653 400.117 171.652C401.131 169.702 402.877 168.217 404.745 167.031C411.773 162.58 420.901 161.981 428.879 164.419C432.007 165.376 435.23 166.986 436.612 169.907C437.398 171.571 437.489 173.464 437.571 175.298C437.844 181.887 439.335 189.142 434.489 194.528C429.711 199.838 424.806 201.707 425.706 209.961C422.965 210.278 420.228 210.6 417.487 210.918C416.814 210.998 416.114 211.074 415.473 210.864C415.151 210.761 414.869 210.596 414.628 210.39C413.714 209.607 413.328 208.198 413.173 206.946V206.941Z" fill="#EFBFA5"/>
<path d="M399.648 175.65C400.115 177.764 401.108 179.9 400.591 182C397.219 180.861 395.018 177.427 393.824 173.938C393.284 172.357 392.89 170.681 393.028 169.009C393.165 167.338 393.892 165.657 395.219 164.71C397.072 163.389 400.394 163.908 400.925 166.299C401.46 168.709 398.944 172.467 399.653 175.646L399.648 175.65Z" fill="#3B455A"/>
<path d="M382.01 157.371C382.087 154.853 383.05 152.607 385.307 151.086C387.251 149.777 389.495 148.69 390.676 146.608C391.594 144.991 391.73 142.994 392.639 141.373C394.283 138.439 397.853 137.574 400.96 136.583C408.732 134.097 412.915 131.222 421.146 134.409C426.997 136.673 434.56 136.977 439.992 140.282C442.259 141.663 444.189 143.877 445.775 146.345C451.262 154.898 452.579 166.925 449.004 175.845C448.205 177.842 447.187 179.68 446.102 181.437C443.93 184.95 441.6 189.279 437.753 191C437.512 189.343 436.272 188.428 435.886 186.802C435.609 185.63 435.7 184.403 435.763 183.198C435.999 178.507 437.444 171.09 432.743 168.768C426.801 165.829 415.654 168.478 409.931 170.968C404.866 173.173 396.322 176.035 390.922 173.676C385.911 171.484 381.837 162.754 382.005 157.38L382.01 157.371Z" fill="#3B455A"/>
<path d="M387.713 259.515L350.473 278L330 258.672L333.349 174L352.48 177.727L360.901 240.029L397 209.552L387.708 259.52L387.713 259.515Z" fill="#90D9E3"/>
<path d="M427 198.013C435.292 198.013 442.013 191.292 442.013 183H445C445 192.944 436.939 201 427 201V198.013Z" fill="#BABCBE"/>
<path d="M418.742 197H424.258C425.773 197 427 198.247 427 199.787V200.213C427 201.753 425.773 203 424.258 203H418.742C417.227 203 416 201.753 416 200.213V199.787C416 198.247 417.227 197 418.742 197Z" fill="#686E72"/>
<path d="M441.685 172V159.333C441.685 145.644 430.856 134.543 417.5 134.543C404.144 134.543 393.315 145.644 393.315 159.333V172H388V159.237C388 142.539 401.209 129 417.5 129C433.791 129 447 142.539 447 159.237V172H441.685Z" fill="#BABCBE"/>
<path d="M382 168V176V184L380.759 182.133C380 180.662 380 179.662 380 178.414C380 178.414 380 177.61 380 176V173.586C380 172.343 380 171.338 380.759 169.867L382 168Z" fill="#BABCBE"/>
<path d="M390.511 187H387.489C384.456 187 382 184.599 382 181.636V169.365C382 166.401 384.456 164 387.489 164H390.511C393.544 164 396 166.401 396 169.365V181.636C396 184.599 393.544 187 390.511 187Z" fill="#686E72"/>
<path d="M455.241 169.867C456 171.338 456 172.338 456 173.586V176C456 177.61 456 178.414 456 178.414C456 179.657 456 180.662 455.241 182.133L454 184V176V168L455.241 169.867Z" fill="#BABCBE"/>
<path d="M440 181.636V169.365C440 166.401 442.456 164 445.489 164H448.511C451.544 164 454 166.401 454 169.365V181.636C454 184.599 451.544 187 448.511 187H445.489C442.456 187 440 184.599 440 181.636Z" fill="#686E72"/>
<path d="M471.08 128L469.973 119.097L462 109.051L464.818 99L479.68 105.278L484 122.752L471.08 128Z" fill="#EFBFA5"/>
<path d="M434 210.219L480.014 191.67L465.594 118.981L482.188 117L510 192.858L504.27 215.841L452.202 251L434 210.215V210.219Z" fill="#90D9E3"/>
<path d="M419.687 13.7352L420 86.4184C420.031 94.0045 413.865 100.235 406.294 100.269L389.672 100.341L385.467 133L361.403 100.462L260.138 100.9C252.566 100.931 246.348 94.7533 246.313 87.1673L246 14.484C245.969 6.89797 252.135 0.66723 259.706 0.632952L405.865 0.000121003C413.436 -0.0315205 419.655 6.14649 419.689 13.7325L419.687 13.7352Z" fill="#B8DFFC"/>
</svg>
