<svg width="143" height="322" viewBox="0 0 143 322" fill="none" xmlns="http://www.w3.org/2000/svg">
<path d="M1.70952 309.036L7.20949 314.179L9.53345 318.413L5.49997 320.834L0 315.692L0.854762 312.365L1.70952 309.039V309.036Z" fill="#1C305B"/>
<path d="M41.8832 211.728L36.8147 245.81L31.7408 261.504L6.76157 314.315L0.797363 311.196L17.9363 255.827L14.0748 219.177L16.6691 209.072L41.8804 211.731L41.8832 211.728Z" fill="#8CABEF"/>
<path d="M63.1564 218.582L59.3387 315.458L53.2844 316.058L46.1022 254.914L30.8066 213.015L63.1564 218.58V218.582Z" fill="#8CABEF"/>
<path d="M59.7918 314.647L63.4074 317.756L60.4745 321.513L53.5845 318.729L53.2432 315.296L59.7918 314.647Z" fill="#1C305B"/>
<path d="M12.1112 198.164C17.308 164.066 15.451 139.235 15.7214 132.416C15.9918 125.597 20.7844 122.06 20.7871 122.058C22.8899 121.589 24.7196 120.239 26.8442 119.705C41.214 116.095 49.0515 127.05 54.4286 138.864C61.0564 153.421 66.6246 168.463 71.1251 183.808C75.0766 197.275 79.0337 210.864 80.6913 224.84C81.374 230.607 81.9447 236.076 75.6201 238.62C65.5432 242.675 54.2183 242.585 43.5734 243.885C31.3474 245.379 19.1049 246.47 6.79696 246.98C0.371243 247.247 6.91166 232.259 12.1085 198.161L12.1112 198.164Z" fill="#5D66D3"/>
<path d="M38.4803 120.152C39.712 121.298 40.4411 123.113 40.6678 125.6C41.0064 129.33 37.2706 132.384 30.8148 132.046C26.511 131.819 24.2089 128.125 23.9058 120.965C28.3598 118.099 33.218 117.829 38.4803 120.152Z" fill="#FFF5CC"/>
<path d="M86.4672 121.843L72.2804 153.71L61.641 159.021L17.3109 143.088L15.9482 131.694L16.3251 127.301L25.1157 125.385L60.1062 141.583L78.6679 118.658L86.47 121.845L86.4672 121.843Z" fill="#5D66D3"/>
<path d="M44.0618 122.03C42.9721 122.619 41.208 123.295 39.504 122.742C36.7622 121.85 35.8009 121.774 35.7326 117.706C35.6862 114.98 34.4218 105.644 33.5889 99.7794C32.4993 99.3132 31.3305 99.0406 30.1426 99.0133L30.4266 99.0106C30.5659 96.4095 31.7756 93.8821 33.7145 92.1426C34.9762 92.4479 36.1532 93.0532 37.1582 93.8739H37.1609C39.0643 94.7764 40.457 97.4919 41.3418 102.018V102.015V102.023C41.4374 102.511 41.5248 103.027 41.6013 103.572C42.0655 105.502 43.3381 108.733 46.779 110.336C51.8748 112.711 47.7949 121.177 44.059 122.033L44.0618 122.03Z" fill="#292949"/>
<path d="M40.8068 110.971C40.6675 114.066 39.2584 117.221 36.6368 118.867C36.0114 119.26 35.3751 119.552 34.7334 119.759C34.8945 120.424 35.0065 121.035 34.8399 121.316C34.7061 121.539 34.4657 121.673 34.2336 121.793C33.3952 122.218 31.2761 123.383 30.3995 122.93C29.5912 122.513 29.0723 120.91 28.7692 120.062C22.764 119.98 20.0959 111.252 20.9726 106.23C22.5155 97.3988 34.3702 92.6547 38.6767 102.02C39.9712 104.834 40.9488 107.88 40.8123 110.971H40.8068Z" fill="#EACDB0"/>
<path d="M22.0486 114.437C23.2939 117.979 26.0439 120.703 27.2482 122.698C30.0691 126.832 28.2832 126.846 20.6641 130.772C8.99238 134.245 12.0783 125.032 10.5026 123.833C8.92685 122.633 5.02717 120.831 8.21955 116.752C9.9673 114.519 10.1284 112.719 10.1093 110.342C9.96185 108.395 10.2076 104.417 10.4671 102.544C10.5271 101.947 10.6036 101.317 10.7101 100.646C11.4911 95.7277 13.9434 92.1341 18.0725 89.8656C25.9783 86.4275 31.7814 87.3545 35.4763 92.6522C36.7652 96.1748 35.1567 98.7459 30.6454 100.371C23.881 102.806 20.0797 108.85 22.0459 114.437H22.0486Z" fill="#292949"/>
<path d="M79.5225 119.004L82.5674 112.989L89.6594 111.926V120.425L85.6587 121.51L79.5225 119.004Z" fill="#EACDB0"/>
<path d="M38.9777 123.552L63.9787 120.302L82.737 96.832L89.1901 102.806L69.6508 130.925L44.1527 137.221L35.7744 130.257L36.296 123.465L38.975 123.555L38.9777 123.552Z" fill="#5D66D3"/>
<path d="M92.0237 97.5043C93.6503 99.5118 94.3355 101.852 94.0602 104.46C93.7841 107.071 92.6269 109.218 90.618 110.844C89.4044 111.824 88.0708 112.464 86.6314 112.756C85.6837 112.949 84.6898 112.992 83.6541 112.884C81.0412 112.611 78.8923 111.457 77.2666 109.453C75.6403 107.45 74.9544 105.111 75.2312 102.499C75.5073 99.8889 76.6645 97.7413 78.6734 96.1155C80.6823 94.4897 83.0261 93.803 85.6372 94.0753C88.2466 94.3469 90.3973 95.5013 92.0247 97.5069L92.0237 97.5043Z" fill="#B8B2FF"/>
<path d="M94.9611 104.857C94.7073 107.483 93.5409 109.632 91.4913 111.246C90.2531 112.219 88.8873 112.848 87.4086 113.125C86.4349 113.309 85.412 113.34 84.3443 113.22C83.6142 113.138 82.92 112.987 82.2599 112.776C82.4446 112.752 82.6291 112.724 82.8114 112.691C84.2909 112.412 85.6559 111.785 86.8941 110.812C88.9437 109.198 90.1101 107.049 90.3639 104.423C90.6162 101.802 89.8833 99.4366 88.1856 97.3942C86.9466 95.9091 85.4264 94.8764 83.6501 94.3087C84.4566 94.2049 85.2951 94.2013 86.1646 94.2996C88.8547 94.6034 91.0829 95.791 92.7821 97.8298C94.4805 99.8704 95.2134 102.235 94.9603 104.859L94.9611 104.857Z" fill="#A49DFF"/>
<path d="M132.332 46.4961C131.336 56.4164 127.587 63.4833 121.197 67.4996C115.185 71.2761 106.642 72.7382 95.7993 71.8444C95.6282 71.8315 95.4739 71.9567 95.4575 72.1275L94.0746 85.8919C93.8755 87.8663 92.3857 89.3999 90.5124 89.7646C90.0752 89.8509 89.6165 89.871 89.1493 89.8199L83.3461 89.1865C82.15 89.0562 81.0701 88.4737 80.3083 87.5472C79.5464 86.6207 79.1919 85.4598 79.3103 84.2806L81.4465 63.0255C81.6904 60.5897 83.8999 58.8268 86.3726 59.0958L88.8472 59.3656C98.1293 60.4704 105.197 59.9894 109.868 57.9384C114.303 55.991 116.925 51.2923 117.661 43.9741C118.194 38.6648 117.073 34.3284 114.326 31.0859C111.567 27.8335 107.383 25.8799 101.89 25.2821C96.3809 24.6818 91.8718 25.6247 88.488 28.0854C85.6946 30.1182 83.922 33.0154 83.0708 36.9403C82.5915 39.1541 80.5058 40.6351 78.2225 40.3867L72.5015 39.7626C71.25 39.6259 70.1005 38.9738 69.3441 37.9734C68.5885 36.9713 68.2873 35.6997 68.5174 34.4808C69.8823 27.2545 73.428 21.5301 79.0607 17.4627C85.5398 12.7856 93.694 10.9456 103.298 11.9917C112.906 13.0394 120.473 16.596 125.787 22.5616C131.126 28.5608 133.329 36.6116 132.336 46.4932L132.332 46.4961Z" fill="#B8B2FF"/>
<path d="M132.271 46.6712C131.227 56.6566 127.457 63.7854 121.071 67.8588C117.346 70.2331 112.656 71.7182 107.057 72.3015C109.369 71.5642 111.451 70.6062 113.296 69.4289C119.684 65.3563 123.453 58.2267 124.497 48.2413C125.537 38.2948 123.384 30.2068 118.097 24.1987C112.833 18.2236 105.314 14.6843 95.751 13.6805C92.8554 13.3759 90.09 13.3396 87.4635 13.5666C92.2336 11.9788 97.607 11.488 103.526 12.1085C113.091 13.1132 120.61 16.6524 125.872 22.6268C131.159 28.6348 133.312 36.7229 132.272 46.6694L132.271 46.6712Z" fill="#A49DFF"/>
</svg>
