<svg width="119" height="241" viewBox="0 0 119 241" fill="none" xmlns="http://www.w3.org/2000/svg">
<path d="M101.902 133.773L104 147.908L99.7884 227.625L92.7229 226.174L81 135.55L101.902 133.773Z" fill="#292949"/>
<path d="M87.4428 130.777L81.178 186.062L88 226.713L79.8985 229.621L66 184.037L67.3827 131.229L87.4405 130.777H87.4428Z" fill="#292949"/>
<path d="M90 232.636C82.6788 238.629 78.4526 241.242 77.3238 240.472C76.1927 239.703 75.7876 238.409 76.104 236.588L81.1517 233.49L77.9201 226.931L87.5444 222.633L90 232.638V232.636Z" fill="#1C1C35"/>
<path d="M101.713 234.92C93.2305 238.86 88.5551 240.314 87.6886 239.286C86.8199 238.256 86.7731 236.902 87.5483 235.224L93.1281 233.506L91.7827 226.349L102 224.629L101.713 234.92Z" fill="#1C1C35"/>
<path d="M86.0846 37.1391C86.3984 37.21 86.7402 37.311 86.9029 37.569C87.0773 37.8442 86.982 38.1924 86.8867 38.4998C85.6266 42.5261 84.9664 46.7136 84.9338 50.9033C83.5506 48.8869 82.4602 46.6964 81.7 44.4157C80.3749 40.4366 80.4772 35.8858 86.0846 37.1369V37.1391Z" fill="#292949"/>
<path d="M94.5402 30.5146C108.73 34.8712 99.2934 52.6193 93.8506 55.8372C92.2031 56.8107 89.8411 57.4583 87.6325 56.1896C85.7573 55.1126 84.8175 53.1149 84.2518 51.3462C81.8989 44.014 81.6555 26.5566 94.5402 30.5124V30.5146Z" fill="#EAC1A4"/>
<path d="M99.7236 40.9763C100.086 38.5047 98.8295 35.3764 99.3325 33.1522C100.747 26.8821 106.92 30.8515 107.806 35.9634C108.862 42.0716 105.519 48.6993 100.04 51.3508C98.7064 51.9962 96.826 52.2819 96 51.0292C97.5114 47.8559 99.2051 44.5094 99.7236 40.9763Z" fill="#292949"/>
<path d="M99.8545 28.9116C101.481 36.1012 89.0445 37.3588 83.8005 39.4343C78.4544 41.5494 72.2328 41.3977 67 39.0232C72.8261 34.705 75.6725 27.0274 82.0429 23.5404C87.6246 20.4865 98.1991 21.5946 99.8545 28.9116Z" fill="#292949"/>
<path d="M106.624 69.6411C110.282 76.0098 110.266 83.2187 109.76 90.1169C108.617 105.732 110.099 123.837 104.73 138.765C94.5931 138.756 75.1624 134.094 65.0682 133.055C63.1001 119.48 64.248 111.542 65.3557 96.1705C65.9017 88.5907 67.0763 78.4232 69.7509 71.2009C71.9418 65.2903 77.7812 57.6568 86.5961 57.8982C94.8561 58.1261 103.294 63.849 106.622 69.6411H106.624Z" fill="#8CABEF"/>
<path d="M89.8654 60.7048C88.9284 61.0738 87.7786 60.9199 86.6674 59.9161C85.71 59.0535 86.0043 58.7709 86.208 57.4993C86.5067 55.6245 87.0431 53.7582 87.4573 51.9023L93 52.9758C92.9955 52.9758 91.8865 58.0033 91.8005 58.3471C91.5312 59.4416 90.8024 60.3357 89.8654 60.7048Z" fill="#EAC1A4"/>
<path d="M34.3722 78.8594L24 74.4538L24.7832 71.031L31.6471 70.8721L36 75.0851L34.3722 78.8594Z" fill="#EAC1A4"/>
<path d="M81.8943 77.6779L55.2271 94.834L30 79.9815L36.0602 72.2219L54.9117 78.8656L81.1339 57.8926L86 62.3068L81.892 77.6756L81.8943 77.6779Z" fill="#8CABEF"/>
<path d="M23.9055 97.0096C25.6265 99.2991 26.2917 101.915 25.8834 104.79C25.4752 107.666 24.1078 109.996 21.8201 111.715C20.4387 112.75 18.9359 113.403 17.331 113.669C16.2734 113.843 15.1718 113.85 14.0297 113.69C11.149 113.282 8.81558 111.917 7.09454 109.633C5.3735 107.35 4.70831 104.734 5.11658 101.854C5.52484 98.9775 6.89216 96.6476 9.17984 94.9291C11.4675 93.2124 14.0896 92.5465 16.9703 92.9541C19.8492 93.3618 22.1809 94.7271 23.9037 97.0113L23.9055 97.0096Z" fill="#B8B2FF"/>
<path d="M25.8867 104.79C25.4838 107.667 24.1346 109.996 21.8771 111.715C20.514 112.75 19.031 113.403 17.4474 113.669C16.4037 113.843 15.3167 113.85 14.1897 113.69C13.4187 113.579 12.6894 113.396 12 113.145C12.198 113.124 12.3942 113.099 12.5904 113.066C14.1758 112.801 15.657 112.147 17.0202 111.112C19.2776 109.394 20.6269 107.066 21.0297 104.188C21.4326 101.313 20.7762 98.6968 19.0779 96.4073C17.8381 94.7417 16.277 93.5679 14.4224 92.895C15.2837 92.8036 16.1745 92.8212 17.0914 92.953C19.9323 93.3606 22.2331 94.7258 23.9332 97.01C25.6314 99.2995 26.2878 101.916 25.885 104.79H25.8867Z" fill="#A49DFF"/>
<path d="M70.4965 41.4045C68.9188 52.5591 64.4195 60.4011 57.1243 64.7128C50.2657 68.7671 40.6992 70.1227 28.6908 68.7455C28.5021 68.7239 28.3242 68.8625 28.2973 69.0533L26.1087 84.5303C25.7942 86.7501 24.0657 88.428 21.9651 88.7772C21.4746 88.8582 20.9643 88.8672 20.4468 88.7934L14.0266 87.8825C12.7023 87.6952 11.5308 87.0003 10.7276 85.9292C9.92439 84.858 9.58479 83.5366 9.77167 82.2098L13.1515 58.311C13.5397 55.5728 16.0768 53.6591 18.8116 54.0479L21.5501 54.4368C31.8137 55.9994 39.6929 55.6988 44.9811 53.5457C50.0033 51.5005 53.1406 46.2905 54.3032 38.0614C55.1477 32.0917 54.1055 27.1625 51.2054 23.4089C48.2927 19.6463 43.7341 17.3005 37.6571 16.4364C31.5604 15.5705 26.504 16.4796 22.6282 19.1404C19.4262 21.3386 17.3203 24.5449 16.1864 28.943C15.5486 31.4238 13.1605 33.0224 10.6341 32.6642L4.30562 31.7658C2.92204 31.5696 1.67323 30.7937 0.880818 29.6397C0.0884034 28.4839 -0.186529 27.0383 0.126124 25.6737C1.98408 17.5706 6.19772 11.2336 12.6484 6.84088C20.0695 1.78748 29.2209 -0.00919962 39.8475 1.49944C50.4777 3.00808 58.7199 7.27835 64.344 14.1896C69.9933 21.1369 72.0615 30.2932 70.4911 41.4045H70.4965Z" fill="#B8B2FF"/>
<path d="M70.4924 41.2526C68.9191 52.3649 64.432 60.1772 57.1566 64.4725C52.915 66.9762 47.6341 68.4468 41.3801 68.8755C43.9821 68.1438 46.3403 67.1574 48.4405 65.9163C55.7159 61.6209 60.203 53.8087 61.7763 42.6964C63.3443 31.6272 61.2817 22.5056 55.646 15.5847C50.0353 8.69959 41.8156 4.44551 31.2161 2.94259C28.0067 2.48705 24.9317 2.3364 22 2.48346C27.3741 0.899841 33.37 0.566258 39.9322 1.49706C50.5335 2.99998 58.7533 7.25406 64.3621 14.1391C69.9961 21.0601 72.0586 30.1816 70.4924 41.2509V41.2526Z" fill="#A49DFF"/>
<path d="M117.509 81.9421C116.977 82.251 114.773 84.218 110.897 87.8452L105 83.2645L105.51 50.8219L111.658 49.9062L119 76.0279L117.509 81.9421Z" fill="#8CABEF"/>
<path d="M107.273 50.9038L104.25 48.14L101 45.2476L104.718 41.918L109.57 43.2976L111 50.374L107.273 50.9038Z" fill="#EAC1A4"/>
</svg>
