<svg width="209" height="146" viewBox="0 0 209 146" fill="none" xmlns="http://www.w3.org/2000/svg">
<path d="M200 120.227C200 123.102 196.09 125.455 191.312 125.455L173.424 125.385C175.276 125.699 176.024 126.534 176.49 127.589C177.209 129.214 177.145 131.176 175.672 132.467C174.833 133.202 173.581 133.568 172.811 133.568L182.931 133.452C187.709 133.452 191.619 135.804 191.619 138.68V140.772C191.619 143.646 187.709 146 182.931 146H19.9323C15.1543 146 11.2441 143.648 11.2441 140.772V138.68C11.2441 137.393 12.0299 136.211 13.3244 135.298H8.68819C3.91024 135.298 0 132.945 0 130.069C0 127.194 3.91024 124.841 8.68819 124.841H21.9921C19.252 123.959 17.3764 122.219 17.3764 120.228C17.3764 117.354 21.2866 115 26.0646 115H191.312C196.09 115 200 117.352 200 120.228V120.227Z" fill="#CAC8EC"/>
<path d="M119.758 57.9458C115.339 63.9468 109.554 68.8866 103.411 73.1691C98.2683 76.756 85.3035 84.0366 85.2738 83.9999C85.2332 84.0254 75.0737 73.0479 71.252 68.0282C66.6875 62.0321 62.661 55.5237 60.2513 48.4314C55.7759 35.2536 63.6179 17.9768 78.7828 19.0474C84.5295 19.4527 92.7312 24.0735 93.6287 29.5941C96.1369 24.6192 103.774 22.4795 109.368 23.8868C124.126 27.5997 127.971 46.7976 119.758 57.9474V57.9458Z" fill="#EBB1FF"/>
<path opacity="0.1" d="M122.998 51C122.285 53.271 121.208 55.4241 119.761 57.3368C115.288 63.2477 109.431 68.1134 103.214 72.3317C98.0073 75.8647 84.8833 83.036 84.8533 82.9999C84.8263 83.0172 80.2106 78.1781 76 73.4947C78.5327 74.5429 81.3059 75.049 84.2312 74.9673C90.3207 74.796 96.2139 72.3663 101.395 69.3314C106.751 66.1929 111.836 62.3566 116.369 58.1336C118.745 55.9208 120.988 53.5476 123 51H122.998Z" fill="black"/>
<path d="M44 34L50.6729 36.4971L61 55.3815L59.5701 61L52.4206 59.9684L44 34Z" fill="#5D66D3"/>
<path d="M29.3529 132.002L32.5103 134.306L34 136.381L32.1574 138L29 135.696L29.1765 133.848L29.3529 132V132.002Z" fill="#514943"/>
<path d="M41.948 80.0016L42 97.7647L40.5919 106.156L31.7176 135L28.3524 133.87L32.9244 104.326L28 85.9395L28.5554 80.5881L41.948 80V80.0016Z" fill="#CAB5A1"/>
<path d="M54 86.5003L47.2307 136H44.1543L43.5999 104.271L38 82L53.9985 86.5003H54Z" fill="#CAB5A1"/>
<path d="M47.3333 135L49 137L47.3333 139L44 137V135H47.3333Z" fill="#514943"/>
<path d="M29.0434 74.4425C31.6767 56.5909 30.7367 43.5907 30.8736 40.022C31.0106 36.4517 33.4385 34.6007 33.44 34.5991C34.5061 34.3535 35.4337 33.6472 36.5091 33.3662C43.7912 31.4767 47.7614 37.2111 50.4881 43.3965C53.8467 51.0171 56.6683 58.893 58.9483 66.9262C60.9498 73.9769 62.9559 81.0903 63.7963 88.4075C64.1434 91.4272 64.4313 94.2895 61.2268 95.622C56.1205 97.7442 50.3823 97.6977 44.988 98.3784C38.7923 99.1602 32.5887 99.7317 26.3525 99.9982C23.0966 100.138 26.4101 92.2909 29.0434 74.4409V74.4425Z" fill="#5D66D3"/>
<path d="M40.2985 33L42.597 33.1616L44.7313 34.2929L49 49L38 33H40.2985Z" fill="#FFF5D7"/>
<path d="M59.5551 61L54.0146 60.2158L46 45.8561L48.5688 44L61 55.4318L59.5551 61Z" fill="#7C85CE"/>
<path d="M45 45.6138L39.475 61.1033L33.625 63L32 57.7841L42.0718 44L45 45.6138Z" fill="#7C85CE"/>
<path d="M46.291 45L43.4695 43.596L42 41.0488L42.7348 40L45.6841 41.0084L48 43.6934L46.291 45Z" fill="#DBC0A5"/>
<path d="M42 44.873L42.9411 42.3141L45.3779 40L47 41.1789L45.647 44.4222L43.8431 46L42 44.873Z" fill="#EACDB0"/>
<path d="M43.3768 18.5017C44.3154 17.0658 45.4507 16.3828 47.1812 16C49.5719 18.0776 50.2838 21.3418 49.9037 24.266C49.5219 27.1966 47.8264 30.4703 48.5849 33.42C48.6566 33.7027 48.755 33.9855 48.7417 34.2746C48.7267 34.5652 48.5683 34.8718 48.2799 34.9671C48.1048 35.0243 47.9131 34.9957 47.7314 34.9655C46.2259 34.7225 44.5905 34.4112 43.6085 33.2961C41.6996 31.1279 45.2123 29.1377 45.404 27.0299C45.4974 25.9609 46.1309 25.2238 46.2593 24.2295C46.5244 22.1646 44.7722 19.8153 43 18.8337L43.3801 18.4986L43.3768 18.5017Z" fill="#292949"/>
<path d="M46.7302 27.2932C46.2802 29.1855 45.1216 31.0343 43.4796 31.8763C42.9535 32.1451 42.4381 32.3051 41.9378 32.3703C41.9394 32.5676 41.95 32.8628 41.9637 33.1627C41.985 33.6645 41.5532 34.0668 41.0666 33.9907C40.2441 33.8633 39.4078 33.6629 38.6005 33.3025C38.8179 32.7712 38.8438 32.1513 39.0171 31.6277C36.627 29.9996 35.2935 26.125 36.3867 23.0831C38.3025 17.7543 45.3999 15.6103 46.6375 21.6491C47.01 23.4637 47.1803 25.3994 46.7302 27.2917V27.2932Z" fill="#EACDB0"/>
<path d="M38.6457 32.5373C39.2386 33.7522 40.185 34.9087 40.1078 36.2654C40.0677 36.9745 39.7434 37.63 39.4702 38.2823C37.5926 42.7621 39.2648 47.973 41.8834 51.928C43.2252 53.9544 45.0301 55.7349 45.7496 58.0686C46.4676 60.4006 45.4377 63.5694 43.0615 63.8814C42.5983 63.9428 42.1104 63.8924 41.6796 64.0752C40.2082 64.7023 40.7393 67.1447 39.623 68.3075C38.902 69.0576 37.7332 69.0387 36.7048 68.9678C36.3682 68.9441 36.0131 68.9142 35.7383 68.7157C35.1531 68.2918 35.2458 67.4015 35.0944 66.6846C34.8227 65.3862 33.5983 64.4912 32.3384 64.1555C31.0785 63.8199 29.7553 63.9176 28.4537 63.8672C26.8294 63.8042 25.1773 63.4922 23.7753 62.6523C22.3734 61.8125 21.2478 60.3864 21.0378 58.7414C20.6981 56.0769 22.7053 53.7338 24.7218 52.0052C26.7383 50.2767 29.0512 48.5371 29.6997 45.9324C30.4115 43.0678 28.8597 40.1527 28.676 37.2014C28.4815 34.0862 28.903 29.638 29.7614 26.6331C30.6801 23.4202 32.5237 20.554 34.6976 18.0801C37.3348 15.08 42.149 11.7946 45.3065 15.9907C45.8454 16.7061 46.148 17.6547 45.9272 18.5276C45.7959 19.046 45.3575 19.9206 44.8819 20.1979C44.2597 20.5587 44.2458 20.283 43.5309 20.2593C42.4871 20.2247 41.5468 20.3208 40.7007 21.0251C38.2612 23.0515 37.3348 29.1842 38.4897 32.1812C38.5376 32.3057 38.5901 32.4254 38.6457 32.5389V32.5373Z" fill="#292949"/>
<path d="M123.233 71.3438C123.282 70.5928 123.488 69.8141 123.025 69.2462C122.693 68.8383 122.12 68.7044 121.714 68.3689C120.947 67.7349 120.958 66.5976 121.033 65.6203C121.098 64.7692 121.163 63.9197 121.229 63.0686C121.3 62.1468 121.392 61.1634 121.983 60.4431C122.366 59.9753 122.921 59.6705 123.493 59.4535C125.641 58.6394 128.14 58.9703 130.159 60.0553C130.949 60.48 131.729 61.088 131.94 61.9452C132.059 62.4346 131.978 62.9471 131.896 63.4426C131.658 64.8785 131.422 66.3128 131.184 67.7487C131.127 68.0965 131.067 68.4505 130.896 68.7598C130.352 69.7417 128.989 69.871 127.847 69.8787C127.699 70.6605 127.658 71.6378 127.479 72.4842C127.4 72.8551 127.014 73.0798 126.642 72.9736C125.709 72.7043 124.691 72.3257 123.766 72.0671C123.438 71.9748 123.213 71.6778 123.235 71.3454L123.233 71.3438Z" fill="#EACDB0"/>
<path d="M116.343 53.8858C116.638 52.9384 117.09 52.0331 117.565 51.2397C118.381 49.8786 120.322 49.8102 121.844 50.2208C125.13 51.1075 128.724 50.7077 131.475 52.9291C133.046 54.1985 135.4 55.1878 136.712 56.6656C137.259 57.2832 137.597 58.0656 137.794 58.8714C138.478 61.659 137.418 64.806 135.193 66.5902C134.693 66.99 134.146 67.3245 133.584 67.6309C132.424 68.264 131.024 69.0574 129.744 68.9967C130.074 67.9343 132.148 64.946 131.643 63.8057C130.84 61.9966 127.811 61.477 126.124 61.267C124.284 61.0384 122.337 61.7353 120.548 61.4055C119.259 61.169 117.905 60.0179 117.081 59.0161C115.791 57.4465 115.809 55.5969 116.341 53.8842L116.343 53.8858Z" fill="#292949"/>
<path d="M144.548 127L147.839 127.926L149 134.963L145.516 137L143.193 136.63L143 134.964L144.548 132.372V127.002V127Z" fill="#59595B"/>
<path d="M143.665 109.076C145.94 113.303 145.521 116.744 142.408 119.401C139.293 122.058 135.042 125.499 129.653 129.726L144.922 126.285L146 131.719C130.552 136.911 122.646 139.326 122.288 138.965C121.929 138.603 119.832 136.73 116 133.35L128.396 106L142.049 107.631L143.667 109.079L143.665 109.076Z" fill="#292949"/>
<path d="M124.829 72L127.207 91.6281L128 110L115 102.777L119.149 92.184L121.183 72.4711L124.829 72Z" fill="white"/>
<path d="M115.555 133L116 135.419L111.111 138L108 137.354V135.581L111.556 133H115.557H115.555Z" fill="#59595B"/>
<path d="M131.998 117.493C131.998 117.374 130.678 118.63 128.037 121.261C122.276 121.501 117.326 119.375 113.188 114.886L116.154 133.282L110.392 134L100 104.458L105.042 98L128.912 111.379L132 117.495L131.998 117.493Z" fill="#292949"/>
<path d="M120 84.1257L106.068 92L96 77.2494L99.1163 75.3901L106.708 83.9634L117.918 74L120 84.1241V84.1257Z" fill="#3B3387"/>
<path d="M147.829 108.855C147.572 109.524 146.897 110.236 145.26 110.566C141.737 111.276 138.919 111.276 135.043 109.325C133.313 108.454 131.076 108.249 129.129 108.288H129.127C115.252 112.827 110.248 108.2 108.075 105.739C107.915 105.602 107.775 105.491 107.66 105.411C106.879 104.872 106.791 104.226 107.397 103.474V103.473C107.415 103.452 107.434 103.432 107.453 103.41C108.138 101.373 111.236 98.8173 113.412 95.2462C116.369 90.3887 117.615 83.8075 116.525 79.42C115.845 76.6825 116.166 75.1657 116.503 74.412C116.492 74.401 116.592 74.2036 116.654 74.119C116.751 73.9591 116.838 73.8463 116.916 73.7789C117.909 72.5536 119.148 71.7419 121.339 71.5037C131.999 70.3457 131.395 70.9976 135.018 75.4336C136.475 77.2168 139.168 82.3345 140.098 84.4233C141.225 86.9523 142.323 89.4955 143.334 92.0731C144.464 94.9485 145.49 97.8662 146.33 100.839C146.424 101.169 146.723 102.084 147.042 103.191C147.645 105.283 148.323 108.055 147.831 108.857L147.829 108.855Z" fill="#3B3387"/>
<path d="M134.726 83.1174L112.96 90L108.852 87.7834L107 70.5512L109.852 69L114.447 81.8749L132.228 71.803C132.404 71.7037 134.288 73.5465 134.476 73.7482C135.42 74.7627 136.144 75.9478 137 77.0305L134.728 83.1143L134.726 83.1174Z" fill="#4B489B"/>
<path d="M106.293 71L106 70.8432L106.594 68.8232L107.211 63.9269L108.939 63L110 67.5999L108.634 69.5869L106.293 70.9984V71Z" fill="#EACDB0"/>
</svg>
