<svg width="198" height="152" viewBox="0 0 198 152" fill="none" xmlns="http://www.w3.org/2000/svg">
<path d="M198 125.569C198 128.517 194.129 130.931 189.399 130.931L171.689 130.859C173.523 131.181 174.263 132.038 174.725 133.119C175.437 134.785 175.373 136.798 173.916 138.121C173.085 138.875 171.845 139.25 171.083 139.25L181.101 139.132C185.832 139.132 189.703 141.544 189.703 144.494V146.638C189.703 149.586 185.832 152 181.101 152H19.733C15.0028 152 11.1317 149.588 11.1317 146.638V144.494C11.1317 143.174 11.9096 141.961 13.1912 141.024H8.60131C3.87113 141.024 0 138.612 0 135.663C0 132.715 3.87113 130.301 8.60131 130.301H21.7722C19.0594 129.396 17.2026 127.613 17.2026 125.571C17.2026 122.623 21.0737 120.209 25.8039 120.209H189.399C194.129 120.209 198 122.621 198 125.571V125.569Z" fill="#CAC8EC"/>
<path d="M134.373 93.811C127.46 102.95 118.511 110.422 109.044 116.873C101.115 122.276 81.1953 133.181 81.1496 133.124C81.0884 133.162 66.0549 116.005 60.4313 108.177C53.7162 98.8306 47.8314 88.7052 44.4231 77.7197C38.0906 57.3088 50.5874 30.8774 73.5575 32.8929C82.0312 33.6363 93.8949 40.589 95.5967 48.823L95.8141 49.6016L86.3895 59.527L90.7186 67.2203L80.9158 71.9761L90.4564 85.2177L80.6856 109.175L95.3994 83.6791L89.4132 72.4872L96.27 67.9674L89.6151 59.8538L100.282 50.9032L99.6746 44.8763C105.02 40.726 113.347 39.3243 119.791 41.0833C142.054 47.1593 147.218 76.831 134.373 93.8119V93.811Z" fill="#EBB1FF"/>
<path d="M38.8042 35.7646L39.2934 35.9385L48.1632 39.0867L54.7238 51.4015L50.0658 56.6274L44.1847 54.3171L38.8042 35.7658V35.7646Z" fill="#96BCD6"/>
<path d="M32.8344 75.5029L28.7359 105.274L29.341 132.572L24.8185 133.124L19.1952 105.083L18.9048 78.3548L32.8333 75.5029H32.8344Z" fill="#59595B"/>
<path d="M46.4237 73.5161L46.4733 101.949L49.749 132.621L45.4325 133.124L35.9674 103.271L28.8545 74.3006L46.4248 73.5173L46.4237 73.5161Z" fill="#59595B"/>
<path d="M52.5203 79.6537C52.7759 82.4426 52.9738 86.2119 52.0532 86.4212C51.8802 86.4607 51.706 86.3735 51.5466 86.2898C49.8626 85.4001 48.6208 84.0626 46.9628 83.2055C45.2245 82.3077 43.2826 81.9088 41.3894 81.6703C38.5563 81.297 35.678 81.1516 32.8303 81.3133C30.5921 81.4401 28.363 81.832 26.1531 82.217C24.3141 82.5368 22.638 83.302 20.7403 83.2962C18.7961 83.2904 16.8418 82.7543 15.1047 81.7111C15.0413 81.6727 14.9735 81.6285 14.943 81.554C14.909 81.4726 14.9294 81.3773 14.9497 81.2912C15.254 80.0142 15.4485 78.757 16.0897 77.6696C16.8068 76.4543 17.2693 74.9459 17.7523 73.5887C18.76 70.7603 19.6873 67.8051 20.3184 64.8255C21.3046 60.7655 22.4797 56.795 23.4218 52.7257C24.0755 49.9054 24.65 47.041 25.6181 44.3393C26.3759 42.225 27.776 39.1128 29.6568 38.0626C30.2935 37.7067 31.0185 37.6242 31.7264 37.5462C33.8741 37.309 36.023 37.0729 38.1707 36.8357C38.9533 36.7496 39.7687 36.667 40.5118 36.9857C41.6246 37.4613 42.3247 38.7127 42.9433 39.8839C45.7142 45.1313 47.6549 50.8684 48.942 56.8404C49.6138 59.9584 50.2539 63.0857 50.8035 66.2316C51.4165 69.7415 51.9198 73.277 52.2297 76.8323C52.2636 77.2277 52.3993 78.3314 52.5203 79.656V79.6537Z" fill="#96BCD6"/>
<path d="M35.535 49.1243C35.545 50.3723 35.8067 51.602 36.0661 52.8224C37.6493 60.2498 41.201 73.9878 42.7843 81.4152C37.0893 81.8043 28.5808 82.068 22.8848 82.4572C22.8881 79.6283 23.7354 70.6132 23.7376 67.7843C23.7398 65.9709 23.7421 64.1506 23.9814 62.3522C24.3689 59.4519 25.3665 56.6725 26.3563 53.9196C28.1867 48.833 30.0171 43.7463 31.8475 38.6607C31.9455 38.389 32.049 38.1081 32.2505 37.902C32.4921 37.6556 32.8384 37.552 33.1713 37.4656C34.7768 37.0477 36.5972 36.6585 38.2495 36.7806C38.7694 38.2877 37.4545 41.0809 36.9991 42.5558C36.3367 44.7019 35.515 46.8457 35.5339 49.1254L35.535 49.1243Z" fill="white"/>
<path d="M29.5442 133.124L29.8496 135.983L23.3821 137.098L22.8848 135.364L25.7452 133.506L29.5454 133.124H29.5442Z" fill="#3A3029"/>
<path d="M48.3261 133.209L48.754 135.48L43.5146 137.098L42.7842 135.333L45.2904 133.124L48.3261 133.208V133.209Z" fill="#3A3029"/>
<path d="M33.2909 37.6569C32.8799 37.4411 32.371 37.5235 31.9242 37.3901C31.0843 37.1371 30.6937 36.2217 30.4117 35.413C29.8383 33.7713 28.2924 31.575 29.0677 29.8614C29.9267 27.9644 32.2121 27.0745 34.3351 26.868C36.0267 26.7032 37.9561 26.9562 39.0015 28.2568C40.011 29.5133 39.8533 31.2838 39.6442 32.8652C39.5463 33.6077 39.6251 34.6287 39.244 35.2889C39.1114 35.5186 37.4257 36.6649 37.4018 36.5605C37.5977 37.4214 37.7232 38.2985 37.7769 39.1791C36.6539 39.3659 35.5309 39.5516 34.4079 39.7384C33.9946 39.0457 34.0161 38.0386 33.2909 37.6581V37.6569Z" fill="#E6C9AC"/>
<path d="M25.8034 27.3728C25.5418 26.2443 25.2802 25.1158 25.0174 23.9873C24.9203 23.5679 24.8221 23.1333 24.9066 22.7104C25.0471 22.0083 25.6629 21.5013 26.3106 21.2291C26.9583 20.9569 27.6643 20.8588 28.3235 20.6181C29.0272 20.3611 29.6909 19.9406 30.4358 19.8775C31.8523 19.7583 33.0964 20.9557 34.5175 21.0036C36.4847 21.0691 38.1445 19.9371 39.5954 22.1076C39.8615 22.506 39.9826 22.9896 40.2248 23.4044C40.539 23.9394 41.037 24.3296 41.4471 24.7922C43.2475 26.8261 43.1744 30.277 41.5591 32.4079C40.7766 33.4406 40.5127 34.3179 39.3143 34.7712C39.7347 33.5224 38.4084 28.9371 36.7954 28.6123C36.3681 28.527 35.2006 29.1988 34.7539 29.3249C33.7669 29.6053 32.8085 29.8974 31.9117 30.4196C30.5808 31.1964 29.1083 31.8156 27.6026 32.1275C27.4096 32.1672 27.1937 32.2034 27.0303 32.0913C26.8772 31.9862 26.8224 31.784 26.7801 31.6006C26.4534 30.1918 26.1267 28.7829 25.7988 27.374L25.8034 27.3728Z" fill="#3A3029"/>
<path d="M50.0848 56.6263L44.2273 54.2986L36.8145 37.8056L40.1261 35.7646L54.724 51.3622L50.0848 56.6274V56.6263Z" fill="#96BCD6"/>
<path d="M37.2315 37.7514C37.2346 37.7659 36.9111 37.0989 36.2602 35.7494L36.7772 35.5407L35.8193 32.1964L37.3489 30.7974L39.7992 33.3674C39.5005 35.1488 39.2647 36.1666 39.0916 36.4211C37.8484 37.2931 37.2284 37.7369 37.2315 37.7514Z" fill="#DABCA3"/>
<path d="M28.8542 38.9187L24.721 57.2125L18.7517 58.6142L16.9146 52.387L25.486 37.7515L28.8532 38.9187H28.8542Z" fill="#96BCD6"/>
<path d="M26.9204 37.981L25.8696 35.5354L28.1223 32.7842L29.4743 33.5481L29.1741 36.4521L29.8495 36.7326L29.1741 38.745L26.9214 37.981H26.9204Z" fill="#E6C9AC"/>
<path d="M155.134 28.1348C155.086 28.1047 155.039 28.0713 154.99 28.0435L155.129 28.1181C155.221 27.9856 155.321 27.8575 155.424 27.7339C156.235 26.7709 157.406 26.0806 158.68 25.8301C159.81 26.8544 160.371 28.4131 160.14 29.8783C160.044 30.4907 159.808 31.0796 159.465 31.6074L159.466 31.6085C159.462 31.6141 159.458 31.6196 159.453 31.6274C159.422 31.6742 159.391 31.7198 159.358 31.7655C158.856 32.517 156.778 35.8961 157.026 39.9967C157.214 43.103 156.784 45.0035 155.739 45.6994C152.738 45.6582 150.446 45.1716 148.862 44.2408C146.545 42.8792 151.296 33.4968 155.134 28.1337V28.1348Z" fill="#5E533B"/>
<path d="M153.227 38.7463L158.381 41.4137L165.349 54.5236L167.156 57.7085L162.198 60.6013L153.226 38.7451L153.227 38.7463Z" fill="#CDA691"/>
<path d="M140.642 134.117L143.783 136.406L145.266 138.469L143.433 140.078L140.292 137.789L140.467 135.953L140.643 134.117H140.642Z" fill="#3A3029"/>
<path d="M153.179 83.4507L153.226 100.778L151.925 108.963L143.726 137.098L140.616 135.995L144.84 107.177L140.292 89.2442L140.805 84.0247L153.177 83.4518L153.179 83.4507Z" fill="#5E4C3E"/>
<path d="M167.156 87.8375L160.421 136.104H157.359L156.808 105.166L151.236 83.4507L167.156 87.8387V87.8375Z" fill="#5E4C3E"/>
<path d="M160.523 136.104L162.181 137.595L160.523 139.085L157.206 137.595V136.104H160.523Z" fill="#3A3029"/>
<path d="M161.704 53.3585C165.795 68.3709 167.811 84.0585 173.126 98.6602C164.61 101.391 153.058 101.422 144.233 101.269C143.367 101.254 134.194 101.56 134.323 100.954C136.601 90.2562 138.652 79.5079 140.474 68.7194C142.188 58.5613 137.731 44.1919 145.803 38.3542C147.679 38.3542 150.124 37.8481 152.433 37.7515L152.388 37.8113C156.129 40.0992 159.234 45.2812 161.703 53.3597L161.704 53.3585Z" fill="#8279ED"/>
<path d="M152.466 37.7515L156.721 50.7979L162.181 100.682L153.735 101.333H147.256L149.626 56.5205L148.662 38.1477L152.467 37.7515H152.466Z" fill="#FAF1D3"/>
<path d="M159.507 32.4733L160.191 33.7806L160.186 35.86L158.295 36.7581L156.211 32.2305L157.491 30.7974L159.507 32.4744V32.4733Z" fill="#DFC3AB"/>
<path d="M160.934 34.771L169.146 52.2176L167.507 58.6141L163.955 58.4076L161.549 53.1643L157.206 35.1049L160.934 34.771Z" fill="#CDA691"/>
<path d="M157.698 35.5147C156.774 36.905 155.225 37.9827 153.519 38.0383C153.113 38.0517 152.728 38.0161 152.365 37.9382C152.257 38.2886 152.141 38.6 151.983 38.6845C151.857 38.7513 151.705 38.7491 151.562 38.7413C151.044 38.7135 149.711 38.6801 149.419 38.2363C149.15 37.827 149.47 36.5413 149.561 36.0686C147.878 33.7885 147.751 30.0815 149.564 27.9994C152.75 24.3391 159.714 25.3334 159.165 30.8111C159.001 32.4572 158.622 34.1244 157.698 35.5147Z" fill="#E6C9AC"/>
<path d="M139.855 44.0677C139.21 42.9152 139.168 41.4877 139.503 40.2062C139.837 38.9247 140.516 37.7642 141.251 36.6687C141.749 35.927 142.279 35.2001 142.656 34.3888C143.009 33.6299 143.221 32.8129 143.477 32.0152C144.434 29.0426 145.982 25.8429 148.67 24.1427C150.896 22.7357 153.84 22.5086 156.314 23.3074C157.539 23.7033 158.368 24.4793 158.904 25.7037C159.252 26.4991 159.326 27.4588 158.922 28.2267C158.557 28.9205 157.876 29.4032 157.166 29.717C155.117 30.6242 153.422 30.7132 152.043 31.9856C150.664 33.2579 150.098 35.8893 149.662 37.73C149.51 38.3713 147.162 47.604 148.052 47.6862C146.758 47.5664 145.475 47.3336 144.221 46.9924C142.536 46.5348 140.756 45.6756 139.854 44.0677H139.855Z" fill="#5E533B"/>
<path d="M141.453 78.4844L143.39 78.5544L145.267 82.7817L143.299 83.4507L141.771 82.1384L141.287 80.8641L141.453 78.4834V78.4844Z" fill="#DFC3AB"/>
</svg>
