<svg width="405" height="570" viewBox="0 0 405 570" fill="none" xmlns="http://www.w3.org/2000/svg">
<path d="M37 287.035L57.4878 418.434L50.2145 513.36L65.1363 518L78.4946 430.286L107 270L37 287.035Z" fill="#EAC5B0"/>
<path d="M50.7761 516L49 520.419L51.2722 547.965L63.3375 549L67 530.402L65.3892 520.617L50.7761 516Z" fill="#292949"/>
<path d="M96 273L115.453 406.263L108.789 550.819L123.789 551L151.46 395.094L158 283.57L96.0062 273H96Z" fill="#EAC5B0"/>
<path d="M108.82 548.908L106 562.501L140.64 570L143 560.592L124.08 548L108.814 548.914L108.82 548.908Z" fill="#292949"/>
<path d="M157.608 288.92L99.1547 283L95 299.757L103.391 410.423L102.216 511.168L142.632 517L160.369 429.831L161 300.547L157.614 288.913L157.608 288.92Z" fill="#292949"/>
<path d="M104 278.864L45.5723 270L38 300.226L50.9008 411.835L42.9267 499.12L77.6977 504L90.0792 412.308L104 278.864Z" fill="#292949"/>
<path d="M11.4638 239.986C13.2316 258.881 15.821 277.695 18.7902 296.441C19.6119 301.619 30.001 347.581 27.8161 349C36.3315 343.448 44.9217 337.99 53.6487 332.8C82.7556 322.91 120.434 312.953 153.438 309.231C160.615 310.37 167.817 311.546 175 312.237C159.787 254.164 140.739 180.818 117.297 125.869C114.496 119.297 112.28 112.189 108.582 106.096C104.324 99.0824 99.0645 97.5451 92.211 93.9727C89.8643 92.7467 87.4989 91.5206 84.9966 90.78C79.6682 89.2116 73.7609 88.7386 67.81 89.1307C61.3301 88.7013 54.7755 89.9398 50.2127 92.8089C47.6668 93.7238 45.2392 94.788 42.9671 95.983C42.7244 96.1075 42.4816 96.2382 42.2451 96.3689C30.8102 102.611 23.9941 124.705 20.1286 137.675C10.1441 171.146 8.18333 204.903 11.4638 239.986Z" fill="#5D66D3"/>
<path d="M43.9165 77.8369C45.8439 79.9276 48.0045 81.8248 50.4107 83.3288C51.8593 84.2337 56.0578 85.226 56.9171 86.5803C59.1698 90.1376 55.3764 101.346 55.3826 105.89C55.3826 107.518 55.4501 109.178 55.9718 110.72C56.4322 112.068 57.2301 113.272 58.0649 114.427C61.711 119.463 66.198 123.869 71.2804 127.389C71.9126 127.826 72.7658 128.257 73.398 127.814C73.6619 127.626 73.8154 127.327 73.9566 127.04C75.5955 123.707 77.0625 120.281 78.3331 116.78C79.7264 112.954 80.9111 108.835 80.0763 104.847C79.7019 103.05 78.9346 101.371 78.1735 99.7048C77.6886 98.6439 70.8261 85.3696 72.0476 84.7268C72.0906 84.708 72.1274 84.6893 72.1704 84.6706C79.2845 80.9136 83.6303 72.8566 84.6922 64.6686C85.7541 56.4806 83.9372 48.1678 81.2548 40.3855C72.33 14.4921 40.7922 24.3214 34.8075 47.4189C32.0392 58.1157 36.7103 70.0233 43.9165 77.8431V77.8369Z" fill="#EAC5B0"/>
<path d="M80.9457 47.8679C84.515 53.7054 84.3065 60.841 83.405 67.4175C82.5218 73.8451 83.221 80.1298 81.7491 86.4952C82.4237 87.4888 83.9324 86.8306 84.8707 86.104C90.3841 81.8189 95.8423 77.4594 101.245 73.0191C101.791 72.572 102.349 72.1062 102.662 71.4666C103.067 70.6592 103.024 69.7029 102.956 68.7962C101.675 50.9295 94.7813 37.8819 84.8953 23.791C80.0994 16.9474 67.2758 9.38336 60.0023 17.5498C58.3464 19.4066 57.7393 21.9963 57.31 24.4803C57.0524 25.9646 56.8378 27.4985 57.1689 28.9641C58.4936 34.8141 63.9027 34.4912 68.1404 36.3604C73.3656 38.6706 77.9223 42.937 80.9396 47.8616L80.9457 47.8679Z" fill="#292949"/>
<path d="M45.632 45.4154C52.7804 38.1214 65.9248 35.8542 69.6654 25.1841C74.6261 11.0446 65.1299 0.922719 51.5541 0.0631365C34.7492 -0.995769 20.4833 11.4059 14.1237 26.6666C7.75793 41.9335 3.46277 57.107 4.05435 73.9872C4.08517 74.8468 4.13443 75.7437 4.55964 76.485C5.02798 77.301 5.87836 77.7868 6.68564 78.2415C17.2357 84.1589 27.7918 90.0764 38.3419 96C40.0982 93.1036 46.846 85.3113 46.5564 81.9975C46.4578 80.8514 43.2534 76.921 42.7234 75.233C41.1951 70.3495 39.9996 64.4882 39.9996 59.3245C39.8579 54.547 41.1458 49.9999 45.632 45.4217V45.4154Z" fill="#292949"/>
<path d="M185.137 38.1178C187.148 36.0459 189.086 33.8939 190.994 32.1056C191.316 29.3184 191.638 26.5312 191.96 23.744C192.009 23.3124 192.052 22.8437 191.839 22.4676C191.651 22.1346 191.304 21.9373 190.976 21.7585C189.512 20.9568 188.053 20.149 186.589 19.3474C186.297 19.1871 185.993 19.0206 185.665 19.0021C184.942 18.9589 184.377 19.5879 183.927 20.1613C182.372 22.1469 176.836 28.8066 176.69 23.411C176.666 22.5847 175.937 21.9188 175.147 21.7029C174.357 21.4871 173.524 21.629 172.722 21.7646C172.145 21.8633 171.465 22.0483 171.27 22.6094C171.185 22.8622 171.222 23.1397 171.258 23.411C171.677 26.2661 172.236 28.6648 171.665 31.563C171.112 34.7448 170.553 37.9267 170 41.1147C169.97 41.275 174.12 43.4209 174.497 43.6552C176.684 45.0242 175.779 45.6346 178.24 44.093C180.652 42.5822 182.943 40.3994 185.143 38.1301L185.137 38.1178Z" fill="#EAC5B0"/>
<path d="M104.531 157.829L142.636 161L162.008 140.473L177 48.7597L162.392 40L134.392 102.308L79 95.3087L104.537 157.823L104.531 157.829Z" fill="#5D66D3"/>
<path d="M405 316.5C405 204.663 314.337 114 202.5 114C90.6632 114 0 204.663 0 316.5C0 428.337 90.6632 519 202.5 519C314.337 519 405 428.337 405 316.5Z" fill="#D8D8FF"/>
<g opacity="0.1">
<g opacity="0.1">
<path opacity="0.1" d="M0 316.551C0 428.36 90.6292 519 202.424 519C274.071 519 337.027 481.772 373 425.597C342.191 444.55 305.919 455.495 267.097 455.495C155.302 455.495 64.6729 364.855 64.6729 253.046C64.6729 212.893 76.3631 175.472 96.5209 144C38.617 179.623 0 243.576 0 316.551Z" fill="black"/>
</g>
</g>
<g opacity="0.2">
<g opacity="0.2">
<path opacity="0.2" d="M352.03 431.994C376.463 400.225 391 360.436 391 317.245C391 213.283 306.838 129 203.01 129C133.304 129 72.4601 166.988 40 223.421C74.3707 178.735 128.332 149.932 189.014 149.932C292.835 149.932 377.004 234.208 377.004 338.177C377.004 372.338 367.912 404.375 352.024 432L352.03 431.994Z" fill="white"/>
</g>
</g>
<path d="M54.8137 288.304C55.435 290.103 56.2633 291.834 57.2862 293.454C57.8071 294.286 58.397 295.099 59.194 295.684C59.7589 296.097 60.4052 296.38 61.0453 296.657C62.5578 297.317 64.0765 297.976 65.589 298.629C66.0973 298.851 66.6495 299.078 67.1955 298.974C67.5971 298.894 67.9423 298.647 68.2686 298.407C69.9756 297.138 71.6449 295.807 73.2578 294.427C73.5213 294.199 73.7974 293.959 73.9229 293.639C74.1802 292.986 73.7472 292.277 73.3017 291.729C71.0613 288.994 71.8646 287.971 71.1492 285.014C70.6659 283.018 69.2162 282.032 67.6787 280.695C65.1183 278.459 62.5389 276.241 59.9659 274.011C59.6773 273.759 53.7154 277.892 53 278.33C53.9476 280.547 53.5208 283.326 54.0668 285.71C54.2676 286.591 54.5187 287.46 54.8199 288.316L54.8137 288.304Z" fill="#EAC5B0"/>
<path d="M31.3232 116.055C21.0473 127.925 19.666 144.544 15.6028 159.194C11.0749 175.538 5.56841 191.26 0 207.368C0 207.368 16.9778 232.91 50.9272 284L65 276.036L35.9129 206.957C39.5179 194.644 43.1165 182.331 46.7215 170.018C49.868 159.256 55.263 148.732 57.1832 137.677C58.3972 130.692 57.8707 123.146 54.3091 117.045C53.4482 115.575 52.4757 114.347 51.4103 113.35C45.5693 107.867 37.1269 109.356 31.3232 116.055Z" fill="#5D66D3"/>
<path d="M180.911 393.158C184.271 397.635 185.569 402.751 184.772 408.372C183.975 413.997 181.306 418.553 176.839 421.913C174.142 423.937 171.208 425.215 168.075 425.734C166.01 426.074 163.859 426.088 161.629 425.775C156.005 424.978 151.449 422.308 148.089 417.842C144.729 413.378 143.431 408.262 144.228 402.631C145.025 397.006 147.694 392.45 152.161 389.089C156.627 385.732 161.746 384.43 167.371 385.227C172.991 386.024 177.544 388.694 180.907 393.161L180.911 393.158Z" fill="#9790F5"/>
<path d="M183.781 408.373C183.005 413.997 180.402 418.553 176.049 421.913C173.42 423.937 170.56 425.215 167.506 425.734C165.493 426.074 163.396 426.088 161.223 425.775C159.736 425.559 158.33 425.202 157 424.71C157.382 424.669 157.76 424.621 158.139 424.556C161.196 424.037 164.053 422.759 166.682 420.735C171.035 417.375 173.638 412.822 174.414 407.194C175.191 401.573 173.926 396.457 170.65 391.98C168.259 388.723 165.248 386.428 161.672 385.112C163.333 384.933 165.051 384.967 166.819 385.225C172.298 386.022 176.735 388.692 180.014 393.158C183.289 397.635 184.555 402.751 183.778 408.373H183.781Z" fill="#7064FC"/>
<path d="M271.021 285.671C267.955 307.381 259.21 322.644 245.03 331.035C231.699 338.926 213.105 341.564 189.765 338.884C189.398 338.842 189.053 339.111 189 339.483L184.746 369.605C184.135 373.925 180.776 377.191 176.693 377.87C175.739 378.028 174.747 378.046 173.742 377.902L161.263 376.129C158.689 375.765 156.412 374.412 154.851 372.327C153.29 370.243 152.63 367.671 152.993 365.089L159.562 318.576C160.317 313.246 165.248 309.522 170.563 310.279L175.886 311.035C195.835 314.077 211.15 313.492 221.428 309.301C231.19 305.321 237.287 295.181 239.547 279.165C241.188 267.546 239.163 257.953 233.526 250.647C227.865 243.325 219.004 238.759 207.193 237.077C195.343 235.392 185.515 237.161 177.982 242.34C171.758 246.618 167.665 252.858 165.461 261.418C164.221 266.246 159.58 269.358 154.669 268.661L142.369 266.912C139.679 266.53 137.252 265.02 135.712 262.774C134.172 260.525 133.637 257.711 134.245 255.055C137.856 239.285 146.046 226.951 158.584 218.402C173.008 208.567 190.795 205.07 211.45 208.006C232.112 210.942 248.132 219.253 259.063 232.705C270.043 246.226 274.063 264.046 271.011 285.671H271.021Z" fill="#9790F5"/>
<path d="M271.016 285.295C267.966 306.9 259.266 322.089 245.161 330.44C236.937 335.307 226.699 338.167 214.574 339C219.618 337.577 224.19 335.66 228.262 333.247C242.368 324.895 251.067 309.707 254.117 288.102C257.157 266.581 253.158 248.846 242.232 235.39C231.354 222.004 215.418 213.733 194.868 210.811C188.646 209.925 182.684 209.632 177 209.918C187.419 206.839 199.044 206.191 211.767 208.001C232.32 210.923 248.256 219.194 259.131 232.58C270.054 246.036 274.052 263.77 271.016 285.291V285.295Z" fill="#7064FC"/>
<path d="M185.137 38.1178C187.148 36.0459 189.086 33.8939 190.994 32.1056C191.316 29.3184 191.638 26.5312 191.96 23.744C192.009 23.3124 192.052 22.8437 191.839 22.4676C191.651 22.1346 191.304 21.9373 190.976 21.7585C189.512 20.9568 188.053 20.149 186.589 19.3474C186.297 19.1871 185.993 19.0206 185.665 19.0021C184.942 18.9589 184.377 19.5879 183.927 20.1613C182.372 22.1469 176.836 28.8066 176.69 23.411C176.666 22.5847 175.937 21.9188 175.147 21.7029C174.357 21.4871 173.524 21.629 172.722 21.7646C172.145 21.8633 171.465 22.0483 171.27 22.6094C171.185 22.8622 171.222 23.1397 171.258 23.411C171.677 26.2661 172.236 28.6648 171.665 31.563C171.112 34.7448 170.553 37.9267 170 41.1147C169.97 41.275 174.12 43.4209 174.497 43.6552C176.684 45.0242 175.779 45.6346 178.24 44.093C180.652 42.5822 182.943 40.3994 185.143 38.1301L185.137 38.1178Z" fill="#EAC5B0"/>
<path d="M104.531 157.829L142.636 161L162.008 140.473L177 48.7597L162.392 40L134.392 102.308L79 95.3087L104.537 157.823L104.531 157.829Z" fill="#5D66D3"/>
<path d="M405 316.5C405 204.663 314.337 114 202.5 114C90.6632 114 0 204.663 0 316.5C0 428.337 90.6632 519 202.5 519C314.337 519 405 428.337 405 316.5Z" fill="#D8D8FF"/>
<g opacity="0.1">
<g opacity="0.1">
<path opacity="0.1" d="M0 316.551C0 428.36 90.6292 519 202.424 519C274.071 519 337.027 481.772 373 425.597C342.191 444.55 305.919 455.495 267.097 455.495C155.302 455.495 64.6729 364.855 64.6729 253.046C64.6729 212.893 76.3631 175.472 96.5209 144C38.617 179.623 0 243.576 0 316.551Z" fill="black"/>
</g>
</g>
<g opacity="0.2">
<g opacity="0.2">
<path opacity="0.2" d="M352.03 431.994C376.463 400.225 391 360.436 391 317.245C391 213.283 306.838 129 203.01 129C133.304 129 72.4601 166.988 40 223.421C74.3707 178.735 128.332 149.932 189.014 149.932C292.835 149.932 377.004 234.208 377.004 338.177C377.004 372.338 367.912 404.375 352.024 432L352.03 431.994Z" fill="white"/>
</g>
</g>
<path d="M54.8137 288.304C55.435 290.103 56.2633 291.834 57.2862 293.454C57.8071 294.286 58.397 295.099 59.194 295.684C59.7589 296.097 60.4052 296.38 61.0453 296.657C62.5578 297.317 64.0765 297.976 65.589 298.629C66.0973 298.851 66.6495 299.078 67.1955 298.974C67.5971 298.894 67.9423 298.647 68.2686 298.407C69.9756 297.138 71.6449 295.807 73.2578 294.427C73.5213 294.199 73.7974 293.959 73.9229 293.639C74.1802 292.986 73.7472 292.277 73.3017 291.729C71.0613 288.994 71.8646 287.971 71.1492 285.014C70.6659 283.018 69.2162 282.032 67.6787 280.695C65.1183 278.459 62.5389 276.241 59.9659 274.011C59.6773 273.759 53.7154 277.892 53 278.33C53.9476 280.547 53.5208 283.326 54.0668 285.71C54.2676 286.591 54.5187 287.46 54.8199 288.316L54.8137 288.304Z" fill="#EAC5B0"/>
<path d="M31.3232 116.055C21.0473 127.925 19.666 144.544 15.6028 159.194C11.0749 175.538 5.56841 191.26 0 207.368C0 207.368 16.9778 232.91 50.9272 284L65 276.036L35.9129 206.957C39.5179 194.644 43.1165 182.331 46.7215 170.018C49.868 159.256 55.263 148.732 57.1832 137.677C58.3972 130.692 57.8707 123.146 54.3091 117.045C53.4482 115.575 52.4757 114.347 51.4103 113.35C45.5693 107.867 37.1269 109.356 31.3232 116.055Z" fill="#5D66D3"/>
<path d="M180.911 393.158C184.271 397.635 185.569 402.751 184.772 408.372C183.975 413.997 181.306 418.553 176.839 421.913C174.142 423.937 171.208 425.215 168.075 425.734C166.01 426.074 163.859 426.088 161.629 425.775C156.005 424.978 151.449 422.308 148.089 417.842C144.729 413.378 143.431 408.262 144.228 402.631C145.025 397.006 147.694 392.45 152.161 389.089C156.627 385.732 161.746 384.43 167.371 385.227C172.991 386.024 177.544 388.694 180.907 393.161L180.911 393.158Z" fill="#9790F5"/>
<path d="M183.781 408.373C183.005 413.997 180.402 418.553 176.049 421.913C173.42 423.937 170.56 425.215 167.506 425.734C165.493 426.074 163.396 426.088 161.223 425.775C159.736 425.559 158.33 425.202 157 424.71C157.382 424.669 157.76 424.621 158.139 424.556C161.196 424.037 164.053 422.759 166.682 420.735C171.035 417.375 173.638 412.822 174.414 407.194C175.191 401.573 173.926 396.457 170.65 391.98C168.259 388.723 165.248 386.428 161.672 385.112C163.333 384.933 165.051 384.967 166.819 385.225C172.298 386.022 176.735 388.692 180.014 393.158C183.289 397.635 184.555 402.751 183.778 408.373H183.781Z" fill="#7064FC"/>
<path d="M271.021 285.671C267.955 307.381 259.21 322.644 245.03 331.035C231.699 338.926 213.105 341.564 189.765 338.884C189.398 338.842 189.053 339.111 189 339.483L184.746 369.605C184.135 373.925 180.776 377.191 176.693 377.87C175.739 378.028 174.747 378.046 173.742 377.902L161.263 376.129C158.689 375.765 156.412 374.412 154.851 372.327C153.29 370.243 152.63 367.671 152.993 365.089L159.562 318.576C160.317 313.246 165.248 309.522 170.563 310.279L175.886 311.035C195.835 314.077 211.15 313.492 221.428 309.301C231.19 305.321 237.287 295.181 239.547 279.165C241.188 267.546 239.163 257.953 233.526 250.647C227.865 243.325 219.004 238.759 207.193 237.077C195.343 235.392 185.515 237.161 177.982 242.34C171.758 246.618 167.665 252.858 165.461 261.418C164.221 266.246 159.58 269.358 154.669 268.661L142.369 266.912C139.679 266.53 137.252 265.02 135.712 262.774C134.172 260.525 133.637 257.711 134.245 255.055C137.856 239.285 146.046 226.951 158.584 218.402C173.008 208.567 190.795 205.07 211.45 208.006C232.112 210.942 248.132 219.253 259.063 232.705C270.043 246.226 274.063 264.046 271.011 285.671H271.021Z" fill="#9790F5"/>
<path d="M271.016 285.295C267.966 306.9 259.266 322.089 245.161 330.44C236.937 335.307 226.699 338.167 214.574 339C219.618 337.577 224.19 335.66 228.262 333.247C242.368 324.895 251.067 309.707 254.117 288.102C257.157 266.581 253.158 248.846 242.232 235.39C231.354 222.004 215.418 213.733 194.868 210.811C188.646 209.925 182.684 209.632 177 209.918C187.419 206.839 199.044 206.191 211.767 208.001C232.32 210.923 248.256 219.194 259.131 232.58C270.054 246.036 274.052 263.77 271.016 285.291V285.295Z" fill="#7064FC"/>
</svg>
