<svg width="167" height="499" viewBox="0 0 167 499" fill="none" xmlns="http://www.w3.org/2000/svg">
<path d="M121.487 428.839C119.051 445.77 114.172 462.256 111.552 479.157C111.204 481.404 111.852 484.76 110.441 486.695C108.607 489.207 106.201 487.693 105.068 485.516C101.457 478.575 102.991 470.858 102.527 463.368C102.025 455.304 101.288 447.24 101.486 439.154L101 410C117.068 411.573 124.035 411.105 121.487 428.843V428.839Z" fill="#EAC5B0"/>
<path d="M110.306 480L122 489.647L119.187 494L110.492 493.662L101 485.734L102.929 480.986L110.306 480Z" fill="#292949"/>
<path d="M81 410.727C81 410.727 79.1977 420.317 75.5893 439.499C73.7158 452.368 69.4518 464.904 67.5783 477.776C67.1474 480.737 67.3647 483.972 66.1094 486.763C64.8842 489.495 62.4824 489.602 60.3653 487.75C57.5288 485.269 58.8365 480.833 58.889 477.443C59.2375 454.856 57.4352 432.59 57.0005 409.966C56.9968 409.67 57.008 409.33 57.2403 409.141C57.4276 408.99 57.6974 408.99 57.941 409.008C60.1667 409.156 80.8801 411.352 80.9963 410.731L81 410.727Z" fill="#EAC5B0"/>
<path d="M66.1473 482.651L75 495.171L71.3262 499L63.1633 496.692L56 486.431L58.9288 482L66.1473 482.651Z" fill="#292949"/>
<path d="M94.2059 429L94.4776 410.545L88.0919 380.452L88.6537 429L47.2585 425.864L39 347.861L41.0637 339.433L83.9792 332L118.691 337.444L125.121 359.725L127.034 387.009L131 429H94.2096H94.2059Z" fill="#292949"/>
<path d="M54.9955 230.169C66.0431 202.467 106.305 201.99 118.793 228.521C123.858 239.279 124.285 251.629 123.887 263.536C123.438 276.962 122.056 290.355 119.758 303.585C118.614 310.185 116.622 316.711 115.624 323.312C114.773 328.925 117.024 332.809 116.746 337.547C116.531 341.209 119.772 340.681 116.823 343.489C114.652 345.562 99.0509 343.123 95.6193 343.179C80.7965 343.404 65.9883 344.683 51.3409 347C51.1618 318.082 49.5977 289.035 50.0984 260.354C50.124 258.946 50.1605 257.535 50.219 256.123C50.5844 247.253 51.721 238.373 54.9918 230.169H54.9955Z" fill="white"/>
<path d="M91.2446 166.734C88.6599 164.659 90.4572 163.592 93.3846 164.144C95.0835 164.467 96.6073 165.382 98.0875 166.289C99.1082 166.915 100.144 167.56 100.92 168.479C102.229 170.027 102.637 172.153 102.83 174.183C103.053 176.521 103.056 178.881 102.841 181.218C102.75 182.215 100.69 184.963 100.085 185.752C99.4801 186.541 100.18 185.245 99.3817 184.656C98.638 184.104 98.576 183.022 98.5359 182.089C98.3828 178.569 97.5552 175.046 95.8381 171.99C94.6606 169.894 93.0966 168.215 91.2446 166.73V166.734Z" fill="#292949"/>
<path d="M76.6691 210.796C76.0255 208.142 77.0657 204.867 74.8844 202.677C73.6347 201.422 71.7602 201.245 70.3123 200.274C67.581 198.448 67.0534 194.466 66.8065 191.006C66.5895 188 66.3762 184.993 66.1592 181.982C65.9235 178.725 65.7364 175.236 67.2405 172.414C68.217 170.581 69.8184 169.234 71.5133 168.185C77.8888 164.243 85.9368 164.133 92.8436 166.904C95.5487 167.99 98.3099 169.716 99.395 172.609C100.012 174.257 100.009 176.09 99.9973 177.868C99.9599 183.009 99.9225 188.147 99.8814 193.288C99.8739 194.532 99.8589 195.802 99.4698 196.972C98.2388 200.682 94.0034 201.827 90.4041 202.434C90.333 204.844 90.1946 207.255 89.8804 209.644C89.7382 210.737 89.5137 211.833 89.4725 212.912C89.4351 213.832 89.3977 214.498 88.6531 215.201C88.0246 215.797 87.1902 216.139 86.3558 216.393C84.3279 217.008 82.1541 217.159 80.0589 216.831C79.247 216.706 78.4126 216.493 77.799 215.959C76.5157 214.851 76.815 213.364 76.7926 211.936C76.7888 211.55 76.7589 211.164 76.6691 210.792V210.796Z" fill="#EAC5B0"/>
<path fill-rule="evenodd" clip-rule="evenodd" d="M100.633 196.573C99.9931 199.76 98.4264 202.808 95.7954 204.597C92.8109 206.625 89.0636 206.772 85.5209 206.853C83.5821 206.897 81.6432 206.944 79.7082 206.988C74.8035 207.102 69.9248 206.478 67.4018 201.388C66.237 199.041 65.8686 196.313 66.0398 193.669C66.0881 192.943 66.1812 192.195 66.531 191.567C66.8808 190.94 67.5432 190.46 68.2204 190.555C69.0912 190.676 69.6122 191.597 70.1704 192.316C71.391 193.878 73.5494 194.751 75.291 193.914C75.8082 193.665 76.2548 193.291 76.6976 192.913C76.8799 192.759 77.0623 192.602 77.2484 192.455C79.0904 190.992 81.3493 190.321 83.6044 190.031C85.5618 189.778 88.4421 189.07 89.8971 190.713C90.7419 191.67 91.5866 192.624 92.4314 193.581C92.7812 193.973 93.1347 194.377 93.585 194.626C94.0464 194.886 94.5823 194.971 95.107 194.978C96.4243 195 97.9017 194.402 98.3483 193.086C98.5418 192.514 98.5157 191.886 98.5381 191.278C98.5604 190.669 98.6534 190.024 99.033 189.565C100.484 187.816 100.905 190.599 100.961 191.549C101.065 193.229 100.964 194.927 100.633 196.573ZM87.2773 197.453C85.7255 198.484 84.0956 198.495 82.3726 197.985C81.4869 197.721 81.1111 199.184 81.9968 199.448C84.077 200.064 86.1311 199.998 87.9993 198.763C88.777 198.249 88.0588 196.936 87.2773 197.457V197.453Z" fill="#292949"/>
<path d="M103.989 163.303C104.145 163.306 102.548 167.255 102.348 167.595C101.206 169.515 100.891 169.037 99.0051 168.529C95.0807 167.468 90.2409 167.983 86.2683 168.54C81.9325 169.149 77.593 170.397 73.8576 172.754C71.5155 174.233 69.4885 176.306 68.1803 178.772C67.5244 180.005 67.0501 181.342 66.8426 182.728C66.5016 184.11 67.3317 187.543 67.3502 189C64.2152 184.461 62.4401 177.322 63.159 171.857C63.915 166.134 67.0686 161.737 71.9899 158.794C77.7487 155.346 83.5742 155.85 89.9444 156.377C90.6263 156.433 98.9977 156.87 99.0051 157.494C99.0088 158.245 99.0125 158.995 99.0125 159.743C100.261 159.956 101.562 159.843 102.755 159.418C102.596 160.718 102.344 162.006 102.003 163.273C102.666 163.284 103.326 163.291 103.989 163.303Z" fill="#292949"/>
<path d="M0.798501 91.7056C-5.42743 47.686 25.4317 6.98107 69.7248 0.793572C114.018 -5.39393 154.976 25.2747 161.202 69.2944C167.427 113.314 136.568 154.019 92.2752 160.206C47.9822 166.394 7.02443 135.725 0.798501 91.7056Z" fill="#D8D8FF"/>
<g opacity="0.1">
<g opacity="0.1">
<path opacity="0.1" d="M161.204 69.474C167.408 113.407 136.659 154.032 92.5242 160.208C64.2383 164.167 37.3187 153.014 20 132.93C33.2161 138.675 48.1419 140.972 63.4702 138.826C107.605 132.65 138.358 92.0288 132.15 48.0919C129.924 32.3153 123.233 18.2553 113.528 7C138.365 17.7995 157.157 40.7954 161.208 69.4704L161.204 69.474Z" fill="black"/>
</g>
</g>
<g opacity="0.2">
<g opacity="0.2">
<path opacity="0.2" d="M28.4653 134C17.0686 122.871 9.13004 108.047 6.73851 91.0769C0.981114 50.2368 29.5134 12.4772 70.4684 6.73593C97.9636 2.88267 124.068 14.4424 140 34.8128C123.968 19.1569 101.086 10.8284 77.1484 14.1811C36.1935 19.9224 7.66116 57.682 13.4185 98.5221C15.3118 111.944 20.6707 124.026 28.469 133.996L28.4653 134Z" fill="white"/>
</g>
</g>
<path d="M26.602 127.426C26.7196 127.621 26.8408 127.828 26.8996 128.041C27.425 130.043 26.5029 131.404 26.4588 133.468C26.4404 134.39 28.3949 135.717 26.7637 136.728C26.1612 137.1 24.5594 137.808 23.2699 138.593C21.3889 139.736 19.6915 142.328 18.7253 144.632C16.9913 148.791 15.7716 153.13 14.8862 157.547C14.1 161.466 12.23 167.494 12.9353 171.457C13.5709 175.045 18.3286 179.543 20.4631 182.595C23.1523 186.441 25.7828 190.327 28.3581 194.249C30.1693 197.011 31.9879 199.864 32.73 203.087C33.1782 205.037 33.1635 207.256 31.9475 208.845C31.1613 209.87 29.9783 210.497 28.8357 211.094C26.8151 212.149 24.6329 213.233 22.3698 212.956C19.585 212.613 17.4909 210.324 15.7238 208.138C11.7414 203.208 8.04916 197.995 5.14683 192.347C3.09315 188.354 -0.771728 181.294 0.13571 176.741C2.20775 166.359 5.17621 156.22 8.36877 146.088C9.24682 143.305 11.4695 141.336 12.2594 138.755C12.7627 137.107 11.9765 135.452 12.1087 133.793C12.2373 132.152 12.8288 130.029 13.5526 128.55C14.9817 125.638 18.2698 125.048 21.0949 124.251C21.7967 124.052 22.2706 123.916 22.9429 124.06C24.0304 124.296 24.732 125.118 25.4595 125.91C25.8893 126.379 26.2824 126.887 26.6131 127.429L26.602 127.426Z" fill="#EAC5B0"/>
<path d="M141.541 122.91C142.264 122.118 142.966 121.292 144.057 121.06C144.726 120.916 145.2 121.052 145.905 121.251C148.73 122.048 152.018 122.638 153.447 125.55C154.171 127.029 154.759 129.149 154.891 130.793C155.024 132.452 154.237 134.107 154.741 135.755C155.527 138.336 157.753 140.305 158.631 143.088C161.824 153.22 164.796 163.359 166.864 173.741C167.772 178.294 163.907 185.354 161.853 189.347C158.947 194.995 155.259 200.208 151.276 205.138C149.509 207.324 147.415 209.613 144.63 209.956C142.367 210.233 140.189 209.149 138.164 208.094C137.022 207.497 135.839 206.87 135.053 205.845C133.837 204.256 133.822 202.037 134.27 200.087C135.012 196.864 136.831 194.011 138.642 191.249C141.217 187.327 143.848 183.441 146.537 179.595C148.671 176.543 153.429 172.045 154.068 168.457C154.77 164.494 152.904 158.47 152.118 154.547C151.232 150.134 150.012 145.791 148.278 141.632C147.308 139.328 145.615 136.736 143.734 135.593C142.444 134.808 140.839 134.104 140.24 133.728C138.609 132.717 140.567 131.39 140.545 130.468C140.501 128.404 139.579 127.043 140.104 125.041C140.159 124.828 140.28 124.621 140.402 124.426C140.729 123.884 141.125 123.379 141.555 122.91H141.541Z" fill="#EAC5B0"/>
<path d="M72.0755 222.042L83 242.125C82.77 242.125 81.6125 291.355 81.5212 294.677C81.1671 307.313 80.8093 319.949 80.4551 332.585C80.3565 336.098 80.8239 340.212 80.1447 343.663C79.1954 348.484 74.164 347.534 69.8774 347.924C60.501 348.775 50.628 350.392 41.2261 349.913C38.5132 349.773 42.0841 292.68 42.0768 287.355C42.0659 274.435 40.284 260.565 42.0805 247.572C38.5132 242.53 34.7597 237.86 29.867 233.71C22.0205 227.058 16.1603 217.541 12.2169 208.08C12.0928 207.771 11.965 207.443 12.0088 207.111C12.0672 206.655 12.4287 206.309 12.7646 205.999C14.2105 204.681 15.6527 203.362 17.0986 202.044C20.0744 199.326 25.0218 192.619 28.7534 191.363C33.7556 189.684 35.3111 194.137 38.725 198.379C41.4086 201.716 44.1799 205.126 47.8677 207.273C53.1036 210.327 59.4969 210.452 65.2038 212.466C69.6547 211.317 74.7774 210.85 78.9143 209.874L79.2027 213.487L72.0755 222.042Z" fill="#5D66D3"/>
<path d="M154.784 204.091C150.805 213.556 144.885 223.076 136.955 229.73C132.506 233.463 128.991 237.622 125.709 242.091C126.339 250.93 125.089 259.987 127.003 270.369C127.04 270.561 127.059 270.752 127.074 270.944C128.073 282.484 126.461 294.66 125.827 306.185C125.052 320.267 125.03 334.633 123.997 348.567C123.942 349.319 123.842 350.159 123.256 350.63C122.732 351.054 121.983 351.039 121.316 350.947C118.343 350.531 115.673 348.976 112.855 347.944C108.624 346.393 104.065 346.028 99.5728 345.675C96.6922 345.45 90.0863 346.253 88.279 343.67C87.4454 342.48 87.8511 340.027 87.8032 338.567C87.6999 335.322 87.6187 332.072 87.5265 328.826C87.261 319.471 86.9954 310.12 86.7299 300.766C86.1545 280.468 85.5754 260.174 85 239.877L96.0357 219.786C94.0993 217.487 89.5257 213.906 88.74 211.043C87.3716 206.036 92.8231 208.007 95.357 208.63C96.6627 208.95 97.8614 209.208 98.9827 209.437C99.3183 209.249 99.6687 209.083 100.023 208.936C106.083 206.456 113.094 206.552 118.767 203.28C122.493 201.128 125.292 197.72 128.003 194.382C131.455 190.138 133.023 185.683 138.076 187.363C141.849 188.616 146.843 195.329 149.849 198.048C151.31 199.367 152.767 200.686 154.227 202.005C154.567 202.315 154.932 202.661 154.991 203.118C155.035 203.45 154.91 203.777 154.781 204.087L154.784 204.091Z" fill="#5D66D3"/>
<path d="M104 82.445L94.6575 89C94.6575 89 89.9862 76.1689 86.4474 67.9403C85.0319 64.5931 80.5022 63.4774 78.3789 58.7354C74.6985 50.6463 79.0867 43.6729 83.3333 48.6938C88.2876 54.5514 95.6484 58.8749 97.2055 62.2221C99.6119 67.8009 104 82.445 104 82.445Z" fill="#EDCFBF"/>
<path d="M110.746 87.558C111.436 92.0339 110.884 98.8875 107.017 107C107.017 107 99.1455 97.4888 98.1788 93.013C98.1788 93.013 95.9692 76.3684 93.6215 65.7383C92.6548 61.4023 87.6832 58.8846 86.4403 52.7303C84.2307 42.1002 90.8595 34.687 94.7263 41.8204C99.1455 50.0728 106.603 57.0663 107.57 61.4023C109.227 68.8154 109.917 81.124 110.746 87.558Z" fill="#EDCFBF"/>
<path d="M99 78C99 78 98.3216 71.7544 96.0151 61.2064C95.0653 56.9039 90.1809 54.4057 88.9597 48.2989C88.1457 44.6904 88.417 41.3594 89.3668 39C87.0602 40.8043 85.1607 45.8007 86.3818 51.9075C87.603 58.0142 92.6231 60.5125 93.4372 64.8149C94.3869 69.395 95.201 74.1139 95.201 74.1139L88.417 71.4769L99 78Z" fill="#C8A88F"/>
<path d="M107.623 85.263C98.4267 76.9764 88.1161 71.8664 81.4281 68.6899C71.5355 63.856 74.1828 70.4853 57.3236 74.9048C55.0943 75.4572 52.4469 77.1145 54.5369 81.2578C56.4876 85.263 72.3715 82.2246 74.8795 79.8767C74.8795 79.8767 81.5675 88.0251 88.2554 87.7489C88.2554 87.7489 87.1408 93.1352 88.6734 95.7593C88.6734 95.7593 79.1988 100.593 75.1582 104.874L64.0116 97.4166C63.1756 85.9535 61.0856 82.5008 55.3729 83.0532C50.0783 83.6056 50.6356 88.5776 50.775 92.5827C50.9143 99.9025 48.9636 101.146 50.775 104.046C57.6023 115.095 66.3802 122 82.5428 122C88.5341 122 92.4354 121.862 96.1974 120.066C102.328 116.89 117.794 94.5163 107.623 85.263Z" fill="#EDCFBF"/>
<path d="M109.403 88C112.881 98.64 100.499 116.14 95.0737 118.8C91.3176 120.62 87.5614 120.76 81.4403 120.76C65.4419 120.76 56.8167 113.9 50 102.84C50.1391 103.4 50.4173 104.1 50.6956 104.66C57.6514 116 66.4157 123 82.5532 123C88.5352 123 92.4305 122.86 96.1866 121.04C101.89 118.1 115.663 98.36 109.403 88Z" fill="#C8A88F"/>
<path d="M61.98 97.9013C61.98 97.9013 72.48 104.582 75 105L63.94 97.6229C64.36 85.9309 61 82.1728 55.26 83.1471C54.84 83.2863 54.42 83.2863 54 83.4255C59.74 82.7296 62.4 86.4877 61.98 97.9013Z" fill="#C8A88F"/>
<path d="M74.804 80.083C74.804 80.083 81.402 88.1371 88 87.9982V86.4707C81.402 86.6096 74.804 78.5555 74.804 78.5555C72.3298 81.055 56.6596 84.11 54.7352 79.9441C54.4603 79.2498 54.1854 78.5555 54.0479 78C53.9104 78.8332 54.0479 79.9441 54.7352 81.4716C56.6596 85.4987 72.3298 82.4437 74.804 80.083Z" fill="#C8A88F"/>
</svg>
